/* XPM */
static char *Asteroid1698827730[] = {
/* columns rows colors chars-per-pixel */
"64 36 201 2 ",
"   c None",
".  c #00002D",
"X  c #020C2A",
"o  c #040B21",
"O  c #0C152E",
"+  c #071025",
"@  c #11162C",
"#  c #1F1D2F",
"$  c #000033",
"%  c #000D30",
"&  c #000838",
"*  c #011433",
"=  c #0C1A35",
"-  c #00133B",
";  c #011A3D",
":  c #0D1D3B",
">  c #0C1530",
",  c #141B33",
"<  c #141E3A",
"1  c #1A1E3A",
"2  c #0E213F",
"3  c #1F2135",
"4  c #15203E",
"5  c #1B233C",
"6  c #21243B",
"7  c #26293E",
"8  c #2A2837",
"9  c #35313F",
"0  c #443B3F",
"q  c #000948",
"w  c #021D43",
"e  c #000652",
"r  c #001C52",
"t  c #0D2244",
"y  c #042349",
"u  c #152343",
"i  c #1B2542",
"p  c #1E2945",
"a  c #16294E",
"s  c #1D2A4B",
"d  c #172749",
"f  c #0F2D59",
"g  c #1D2D52",
"h  c #1E2F58",
"j  c #222A45",
"k  c #2B2E44",
"l  c #222D4B",
"z  c #292F49",
"x  c #202641",
"c  c #312F40",
"v  c #26304D",
"b  c #2D324A",
"n  c #2E3145",
"m  c #333346",
"M  c #3B3643",
"N  c #3C3847",
"B  c #35354B",
"V  c #36384B",
"C  c #3D3C4E",
"Z  c #39374A",
"A  c #212E51",
"S  c #243154",
"D  c #2C3553",
"F  c #25345A",
"G  c #28375A",
"H  c #2B395D",
"J  c #2E3856",
"K  c #353A53",
"L  c #3B3B52",
"P  c #343C5A",
"I  c #373B57",
"U  c #183360",
"Y  c #173774",
"T  c #243661",
"R  c #273963",
"E  c #2B3B63",
"W  c #2B3C6A",
"Q  c #273C6C",
"!  c #353F60",
"~  c #293E73",
"^  c #423B45",
"/  c #423D4C",
"(  c #483F48",
")  c #3D425A",
"_  c #32446F",
"`  c #2E4272",
"'  c #324573",
"]  c #34497D",
"[  c #4C4145",
"{  c #45414D",
"}  c #4B434D",
"|  c #56494C",
" . c #5B4C4E",
".. c #564745",
"X. c #434254",
"o. c #4A4553",
"O. c #4D4855",
"+. c #43445B",
"@. c #47485E",
"#. c #4C4A5C",
"$. c #534A55",
"%. c #5B4E55",
"&. c #544D5A",
"*. c #554B56",
"=. c #5D5155",
"-. c #5C535C",
";. c #5F585D",
":. c #614F51",
">. c #635355",
",. c #695654",
"<. c #63565B",
"1. c #655A5F",
"2. c #6B5C5D",
"3. c #735E5A",
"4. c #775C54",
"5. c #73625F",
"6. c #7A635D",
"7. c #424665",
"8. c #474A64",
"9. c #494E6A",
"0. c #534D60",
"q. c #4D516C",
"w. c #5A5462",
"e. c #55546D",
"r. c #595566",
"t. c #5D5D73",
"y. c #515671",
"u. c #645B64",
"i. c #6A5C62",
"p. c #635D6B",
"a. c #665B66",
"s. c #6F6164",
"d. c #6C626B",
"f. c #67636F",
"g. c #736364",
"h. c #7A6663",
"j. c #7E6965",
"k. c #74686D",
"l. c #7B6B6B",
"z. c #756568",
"x. c #696474",
"c. c #646376",
"v. c #756A73",
"b. c #796D73",
"n. c #726D79",
"m. c #7D7176",
"M. c #7E737C",
"N. c #8D6C5E",
"B. c #826C65",
"V. c #816E6C",
"C. c #85716E",
"Z. c #8B736C",
"A. c #8B7065",
"S. c #95796C",
"D. c #9A7C6E",
"F. c #95776A",
"G. c #837375",
"H. c #8D7772",
"J. c #8B7975",
"K. c #84767B",
"L. c #8C7B7B",
"P. c #957B75",
"I. c #947E7B",
"U. c #95827D",
"Y. c #9B847B",
"T. c #9F8677",
"R. c #A28476",
"E. c #A0877E",
"W. c #A7897B",
"Q. c #B18E7E",
"!. c #B2907E",
"~. c #636285",
"^. c #7C7688",
"/. c #8D7D82",
"(. c #847B86",
"). c #8E8286",
"_. c #958485",
"`. c #9A8481",
"'. c #9E8985",
"]. c #9B8A8C",
"[. c #99898C",
"{. c #8B899A",
"}. c #9E9496",
"|. c #A38D85",
" X c #A48E8B",
".X c #A68A84",
"XX c #AE9083",
"oX c #A69189",
"OX c #AE938D",
"+X c #B2958A",
"@X c #B39889",
"#X c #B79785",
"$X c #AB9792",
"%X c #B49B91",
"&X c #B8A097",
"*X c #BCA79B",
"=X c #AB9EA2",
"-X c #B9A7A7",
";X c #BAA6A3",
":X c #C5AA9C",
">X c #C2A9A3",
/* pixels */
"                                                                                                                                ",
"                                                                                                                                ",
"                                                          !.T.Y.oXU.M.                                                          ",
"                                                  XX#X@X#XY.).M.K.d.w.2.J.-X-XoX                                                ",
"                                            +XW.W.!.T.J.2.;.=.;.a.M ^ [ 5.*X=XK.l.).                                            ",
"                                        @X@XXXD.N.A.d.b.6.s.M 9 | } (  .6.A.Z.E.T.P./.^.                                        ",
"                                    R..XXXW.D.D.H.u.-.g.=.{ ) %.} | 2.V.F.P.l.D.OXL.V.~.                                        ",
"                                    >X|.I.J.D.B.U.k.$.....[ | =.u.j.l.h.6.2.K.Z._.).l.{ Y                                       ",
"                                  %XU.Z.;.g.I.W.C.d.1.[  .V o.2.L.d.L D C i.K.-.w.(.c.P h `                                     ",
"                                `.h.3.2.l.oX|.+XU.2.{ -.z.O.u.m.w.- : i < +.! . O.r.D a A h                                     ",
"                                Y.2.&.G.%X].,.3.k.u.0.v.&.u.^.e.t j j l x : u : ^ >.#.+.4 5 g                                   ",
"                              &X|.2.g.Y.OX<.4.3.>.J.M.V 1.U.r.7.a j i l l , < = 6 2.%.J & + F h                                 ",
"                              $Xj.Z.H.Z.].%.>.| 6._.n.l.G.#.. S E p u l 5 , @ X # <.b ; o.n g h                                 ",
"                            :X&X^ 6.j.j.U.1.<.h.U.s.w.l.X.@.e./ / a s i u 5 , , % o.Z.L.s.L g F h                               ",
"                            %X!.>.h.l.j.oX].L._.^.;.m.b.$.0.e.o.d s d u p < , , % k.|.b.y n v 5 g                               ",
"                            oXR.B.,.2.V.G.K.m.d.f.M.+.- l V ( $.p i < u > O 1 % # _.J.} { { a p S                               ",
"                              `.g.<.>.i.| b.(.a.9 s ; i i $.-.{ x 1 , w O , x $ f.}.).B.h.) d l T                               ",
"                              I.b.p.>.2.:.m.x., * < x l u 8 ^ m w = < u u u p l U ].*Xv.f s S p A R                             ",
"                              `.G.<.%.i.i.%.1 * 5 5 , , 5 = c N / c 6 i < 5 1 w #.:XY.e H v S s s W                             ",
"                              `. XK.( ( -.*.B x 4 < , O 5 x 2 N *.k i 6 i d i n C.L.q s v s s s A W                             ",
"                                /.H.>.^ *./ / z 4 u , , 5 5 < O.:.( M 1 A l x K o.L 5 k p p s S A W                             ",
"                                +X].-.%.u.%.%.B : p i 3 5 5 5 <.,.s.M - i s u < ; g k s v j p H R ]                             ",
"                                   XB ^ h.i.a.m * l u = ; * 6 K.$.<.O.o.V D d A S S S i p p > s ~                               ",
"                                  /.s.%.V.i.<.m ; w - ^ =.M C k.o.u.h.H.y P g E W F p j F S 4 H                                 ",
"                                    K.`.).z.m.b X.%.( =.>.%.V.g.V.| C.b.r S l F E A s H F l E E                                 ",
"                                      =X{.t.x.v | w.B 1.Z V.|.#.a.#.o.P p l j S A A A F S F E                                   ",
"                                      {.y.9.p./ N n * { L o.w.r z j % , 5 l j l F F A A G E                                     ",
"                                        O.O.t.Z * o < < 8 1 s D t t 6 3 p 5 j i A R F l F                                       ",
"                                          a.p.w 5 4 l s r.w.l I X.L w p l s s s g T F A                                         ",
"                                            / #.@.d k B @.B w X.g.r.7.D s S s F E E G                                           ",
"                                              d.@.I $.d.#.z M B X.H 8.H Q F s E H E                                             ",
"                                                @.I #.w.8.t.q.J 8.E y ` ` H F E                                                 ",
"                                                    s s S ) F G H _ _ ' G                                                       ",
"                                                        S H S G E _ E                                                           ",
"                                                                                                                                ",
"                                                                                                                                "
};
