/* XPM */
static char *stars1698830925[] = {
/* columns rows colors chars-per-pixel */
"64 64 256 2 ",
"   c black",
".  c #010101",
"X  c #020202",
"o  c gray1",
"O  c #040404",
"+  c gray2",
"@  c #060606",
"#  c #070707",
"$  c gray3",
"%  c #090909",
"&  c gray4",
"*  c #0B0B0B",
"=  c #0C0C0C",
"-  c gray5",
";  c #0E0E0E",
":  c gray6",
">  c #101010",
",  c #111111",
"<  c gray7",
"1  c #131313",
"2  c gray8",
"3  c #151515",
"4  c #161616",
"5  c gray9",
"6  c #181818",
"7  c #191919",
"8  c gray10",
"9  c #1B1B1B",
"0  c gray11",
"q  c #1D1D1D",
"w  c #1E1E1E",
"e  c gray12",
"r  c #202020",
"t  c gray13",
"y  c #222222",
"u  c #232323",
"i  c gray14",
"p  c #252525",
"a  c gray15",
"s  c #272727",
"d  c #282828",
"f  c gray16",
"g  c #2A2A2A",
"h  c gray17",
"j  c #2C2C2C",
"k  c #2D2D2D",
"l  c gray18",
"z  c #2F2F2F",
"x  c gray19",
"c  c #313131",
"v  c #323232",
"b  c gray20",
"n  c #343434",
"m  c #353535",
"M  c gray21",
"N  c #373737",
"B  c gray22",
"V  c #393939",
"C  c #3A3A3A",
"Z  c gray23",
"A  c #3C3C3C",
"S  c gray24",
"D  c #3E3E3E",
"F  c #3F3F3F",
"G  c gray25",
"H  c #414141",
"J  c gray26",
"K  c #434343",
"L  c #444444",
"P  c gray27",
"I  c #464646",
"U  c gray28",
"Y  c #484848",
"T  c #494949",
"R  c gray29",
"E  c #4B4B4B",
"W  c #4C4C4C",
"Q  c gray30",
"!  c #4E4E4E",
"~  c gray31",
"^  c #505050",
"/  c #515151",
"(  c gray32",
")  c #535353",
"_  c gray33",
"`  c #555555",
"'  c #565656",
"]  c gray34",
"[  c #585858",
"{  c gray35",
"}  c #5A5A5A",
"|  c #5B5B5B",
" . c gray36",
".. c #5D5D5D",
"X. c gray37",
"o. c #5F5F5F",
"O. c #606060",
"+. c gray38",
"@. c #626262",
"#. c gray39",
"$. c #646464",
"%. c #656565",
"&. c gray40",
"*. c #676767",
"=. c #686868",
"-. c DimGray",
";. c #6A6A6A",
":. c gray42",
">. c #6C6C6C",
",. c #6D6D6D",
"<. c gray43",
"1. c #6F6F6F",
"2. c gray44",
"3. c #717171",
"4. c #727272",
"5. c gray45",
"6. c #747474",
"7. c gray46",
"8. c #767676",
"9. c #777777",
"0. c gray47",
"q. c #797979",
"w. c gray48",
"e. c #7B7B7B",
"r. c #7C7C7C",
"t. c gray49",
"y. c #7E7E7E",
"u. c gray50",
"i. c #808080",
"p. c #818181",
"a. c gray51",
"s. c #838383",
"d. c #848484",
"f. c gray52",
"g. c #868686",
"h. c gray53",
"j. c #888888",
"k. c #898989",
"l. c gray54",
"z. c #8B8B8B",
"x. c gray55",
"c. c #8D8D8D",
"v. c #8E8E8E",
"b. c gray56",
"n. c #909090",
"m. c gray57",
"M. c #929292",
"N. c #939393",
"B. c gray58",
"V. c #959595",
"C. c gray59",
"Z. c #979797",
"A. c #989898",
"S. c gray60",
"D. c #9A9A9A",
"F. c #9B9B9B",
"G. c gray61",
"H. c #9D9D9D",
"J. c gray62",
"K. c #9F9F9F",
"L. c #A0A0A0",
"P. c gray63",
"I. c #A2A2A2",
"U. c gray64",
"Y. c #A4A4A4",
"T. c #A5A5A5",
"R. c gray65",
"E. c #A7A7A7",
"W. c gray66",
"Q. c #A9A9A9",
"!. c #AAAAAA",
"~. c gray67",
"^. c #ACACAC",
"/. c gray68",
"(. c #AEAEAE",
"). c #AFAFAF",
"_. c gray69",
"`. c #B1B1B1",
"'. c #B2B2B2",
"]. c gray70",
"[. c #B4B4B4",
"{. c gray71",
"}. c #B6B6B6",
"|. c #B7B7B7",
" X c gray72",
".X c #B9B9B9",
"XX c gray73",
"oX c #BBBBBB",
"OX c #BCBCBC",
"+X c gray74",
"@X c gray",
"#X c gray75",
"$X c #C0C0C0",
"%X c #C1C1C1",
"&X c gray76",
"*X c #C3C3C3",
"=X c gray77",
"-X c #C5C5C5",
";X c #C6C6C6",
":X c gray78",
">X c #C8C8C8",
",X c gray79",
"<X c #CACACA",
"1X c #CBCBCB",
"2X c gray80",
"3X c #CDCDCD",
"4X c #CECECE",
"5X c gray81",
"6X c #D0D0D0",
"7X c gray82",
"8X c #D2D2D2",
"9X c LightGray",
"0X c gray83",
"qX c #D5D5D5",
"wX c gray84",
"eX c #D7D7D7",
"rX c #D8D8D8",
"tX c gray85",
"yX c #DADADA",
"uX c gray86",
"iX c gainsboro",
"pX c #DDDDDD",
"aX c gray87",
"sX c #DFDFDF",
"dX c gray88",
"fX c #E1E1E1",
"gX c #E2E2E2",
"hX c gray89",
"jX c #E4E4E4",
"kX c gray90",
"lX c #E6E6E6",
"zX c #E7E7E7",
"xX c gray91",
"cX c #E9E9E9",
"vX c #EAEAEA",
"bX c gray92",
"nX c #ECECEC",
"mX c gray93",
"MX c #EEEEEE",
"NX c #EFEFEF",
"BX c gray94",
"VX c #F1F1F1",
"CX c gray95",
"ZX c #F3F3F3",
"AX c #F4F4F4",
"SX c gray96",
"DX c #F6F6F6",
"FX c gray97",
"GX c #F8F8F8",
"HX c #F9F9F9",
"JX c gray98",
"KX c #FBFBFB",
"LX c gray99",
"PX c #FDFDFD",
"IX c #FEFEFE",
"UX c white",
/* pixels */
". o   7 q X   $ 4 w   I l.@ > X X   2 .   &   M : .   O o   .     X #   +   o X .   . X X .         *   o o   +     &   X       ",
"$ X $ .     .   8 s   h +.  * X #       #   +     . O +     $   +       $ :   @ %   . + X   X O @     $     @   # X   o $   1 r ",
"  y c   # &   %   O : X % 9 f     O I z . 2 I 5 %     .   . * X       *   . =       o     O 6 9   -   . = & .   X       . + g Y ",
"o c F O &       $ . % # = a L . ,   v 4   z S     + O     % q 2     $   j !   9 2 # + o   + 6 0 X + + %     $   X   , +   X   . ",
"    -     # l >   - D     +   -   & X     %   o o O   X X         . :   z ~   0 y X   o O   X @ 5 @     G a   + . X       @ % % ",
":   o @     t = @ w d   = O &     +   & g D   ;   #     + o X O   + @ 8     7   $ , > + . o .   $ 5 # a =Xu.% s   &   & #   #   ",
"  X o   O   + ; o   * @       $ X   1 , r H O     J n     + +   .       + * 1 . X g h & . $ O   @ o   o W z w K   $ # o   O   X ",
"+   +     % O O   ; .   X X       :     * . . % o 3     t 4   o X O   O o   t .   & .   + X   @   * .   &   O O   % H q & b   # ",
"+   X #             @   =     $ O @ } A.@ y   o o     + 2 5 @ X @     . .   O     -   O     X + .     $ < < #   . = @ O # y +   ",
"  < o   O +   $ X # X     #       O o.}.  6 -       o . @ @   X O 1 # + o *   + $   X + y . o   X             O .   o +   O X % ",
"+ ;     +       <   #   =     + O # O   5         . O         O r b   o     w .   . -   X + O .   . O O     % 0   @ @   @ = # 1 ",
"  *   o @   = O : + $ o   +       # X 0   + o X X X X   . +   O   . $   = = $ $ -   o   X O   O     $ * O   - t #   # 7 X     + ",
"% Y s       O % X     @   . . , 9   %   $ X .     X O   . +   . X   =     o o X   2 P .     +       X @ X     & % +   1   % o X ",
"  z a @   % x R   -     =   o - &   & % * <   @   @ = X   X   X X #   & ; 0     @   9 @ # .   . o                 $ g  .$ O O   ",
"+ # < >   o d D o T * o   %     $       % 4 . e   # = o o #   X C l.  & c <   -     + .   @ X # o X     O $ @   5 X &.;Xz   < * ",
"X @ o   . X   O , n   < b   . i 2 o %   @   . r X X .   @ : o   = f o O   o +   c $ O $ ; O       X .   o % +     @   w = $ o o ",
"=   % $ o   :   X   &   7   X . +     X   @   o     O $ % t   +   X .     X X   2 &   5 - $     . o .     X % ; o   o @     X   ",
"  o X +       + o   X % X >   . .   O   . . # # X       @   * +   . o . . o o .   $ *   ;     * . =   + C.n.  V   X     & X o % ",
". 8 $ > . %   9 2 > V 4     . X     . @     @   *   - X . =     . o O .     . . + =.f.  k     o + @     Q ' @ 1 X   @ 7 W 9   $ ",
". 4 X =   &   8 ,     o $ n h   # X       O d l   o   O     X X o X         X o   q Z o X @   .   * @ O   o 3   @   . 2 A ,   & ",
"+ +   X   .   @ %   X O + 6 k   #   o @ *   p f + - o   $   %           X o X . -   . ;   .   i y   X @ ; 6 # O   O +     o + O ",
"> X . O   X +       *   ,   l o   . = j $ .       $ .     +   o o X o + + X       % ;   % . X x B + X   O -   X . X + o   ; :   ",
"%     o           @   X     #     $ < h   - o % k ..# 4     X   @ + + + o . + = & o   &   O     % w =   +     % ,       + + &   ",
"  o   O   X   O o O .   $ O   o X   f $ o   =   = N @     @   .           @ 6 g   @ X   X . $ o O   O .   X %       >   +   X   ",
"o o   0 -   @ X @ 7 3 .   O X     + 2 #   +   .     l t       @   %     * %   < .   . X       o X O .   o O O @ ) f   X &   o   ",
"o   , X   -     -   X , & $ k + X   $     X   X o i m -   > .   f o O $   $ $ X , r   O o   .   .       . O O o / h   n @ *   * ",
"X 2   a.`   & 3   R.4.  8 O % o o         X   X   @ @ X O     O   O . & 6 $ . X , j   X       +     o o     o + @ O > v     . # ",
"  > O q.L # + 8 O K.:.o 9 o o . .     . o O           o     : X   *   $ u O &   X @       &   @ +   X o     X   ;   $       ;   ",
"o   , % $ : &   # * + * .   $     o X X . . X   O +   %     4 ; =   O .     % X 3   X   + X O   ; X     o O     O o   % & =     ",
"$ X X & -   -   # 2 < % @ #   @   O . + o   X .   ,     %   X 2     $   ~ |   w 8 + . o .   n m @ # X   X     $   %       X   > ",
"X   X *   X   X   X O   o .     X .   2 1     o   i 2     #     o >   X N.Y.$ s         . . H ^   = @ . @     7 ; # %   # #     ",
"+   @   + + > X +   +   $   &   O   X p s O   O O     O X . X . @ .   o 6 f   % X   + o $ %     % =     2 , # 8 y     O     * k ",
"O .     X # o     +   +   =   O h h X     +   O o o     o X   X o   o o     &   . + .   . O + >   X   @ @ . n d . $ o X   ;   u ",
". . +   .   X   @ r O   X   @   3 7   $ - % X . . o     X .   @ g o   X , ,   . + @ . & o   +   . o         b M   9 & $     % 9 ",
"o     o .     o     r T @ * o     1   #     $ 7   O X   . . X $ =.8 O     .   <       3 ;   ,       + & #   =   *   ,   o X   g ",
"# X   % X O   @ ;   d W   $ . X %   7 f.1   d ! X @ X     . . +     & .   = % + # X . 5 8 & #   %         . # .   #     +   X   ",
"  O $       X     + X   $ $ f 2   % > / # O     O # X     X   . *     + *   o , O .     + .   < . X @ $       o @ +       X O * ",
"@ q M   - # t @   O #   - $ =   .     -   X $   o % @     .       = &   . R ;.  < .   % S J + .   X   o     O $     o 3 ; O     ",
"  ; y   o   <   +   + 1   =   #   V G X O O   +   * = o .     o .   & O   G #.. : - %   # &   , >.` 3 = o + 6 q & + 5     * o X ",
"o .   . X O X . o %     @   O   + O , X $ -   o   = > # .   X $ o .   @ &     6       . + O     a d   * O   @ o . @   | 6.X x < ",
"  X O . .   $ B i a * +     $ . o   O     x : . > % O   #     z 1   q +     y     o   X   . 3 e o   & o X < r   &   X B I + 8   ",
"+       O     4   #     O @ 9 5       $ % +   o   = #.9   $ =     & x X x S   >       + o . * 4   X =   - > * . #   @ & o @   @ ",
"O       o O   X   @     X   - #   %   4 s   O 7 = e E.D   X   o   + $   0 w   X +           . - #   %       <     # o # # + +   ",
"X   # .   o o o   @         O   + , . : 0   + @       O ; @ %           ; o   o     # @ @ #     X o     1   o # $   #   2 ;   $ ",
"o + = .   X X .   X         + . o +   o   o X     & .     @   + O $ + -     * O X . .     o       *   X $ q W = O   > 1 N 8 O X ",
"  o #     % .   @ @ O           .   . +   @ o #   = O +     -       O   E T.  , @ +   + # . @ O     $ ,   R _.n   5     %   * o ",
". $ $   O &   .     X     o . . #   + o #     X &   &     X X   X = 1 o i o.  X   @ % v n - % . %     # + O u     @ $ X O @   O ",
"& 4 <   X o   @     o     o     X   o   r # O $   +   # .   %       > O     & . O .   z x   + #   O o   @     X   X     1   #   ",
"  & g : X   -   o     X     s 7 . # O   O 6   o o   & #     +   . $       ; O X   @ X   + *   X @   o #   . ,     @   X     X o ",
"U.Q O O   @ .     = . ; O   K P   o @   . @ O # O o     + o V s o   * N B 7   O +     * .   > o   = > l t   &   @   X   % i   X ",
"[ g   ;   o   @ X         O . + @ X +   O   ; &   # *   X   z 6     @ i a ,   .     * %     $           X     *   %   &       t ",
"O   o .   X $ . X . + .   >   @ +       X   &   X = j = o   @   X $ X   . $ + O   O O   @ o o X # % $ o   o     - + + # a y.m   ",
"w O .   $   +   n H % % .   # X o .   ; X   +   X $ w , X #   @   X X o % o   . O o   . *   # X   1   &   X _ K   % c v e &.x   ",
"O   . O o     O r d X       o     # @ 4 + O . O   .   @   .         O X %           P w   # O   . O   ,     n i $ . : z   o $ + ",
"  o       # .     # r % X O   +     X O @ #       o   X O X     o % &   X . $ @ X . o.d   2 @   ;   O O   o .   *   # $   e X X ",
"o O           X @ . @   O @ @   - . O   3 6 + . O   >     +   >     @   $     X o     @ :   &     & $     @ # O   %   . . .   . ",
". o   o   o   X     o . # @ , $ , =   & @   X o #   #     #   O & O O O             9     # . h V   5 X     . O @   @ O   . . o ",
"X o . X   . o #   :       . $     .     X . O     6   O #   l ` O X o     X @ . @     . $ @   h N - 3   o O         +   = O   O ",
"X   @ X     o     >   O + @   & .   *   o O o   o U 5   $   i ' * O X       .     : + -   #   & #       . @   X . 2 s = V 7 $ $ ",
"    , +     =   + o o     O   % X   . .       .     X     & %   1 O   + .           # 2   o     # % + @ o     .   ; q   w @   @ ",
"@ - u < . O p f     O X     t 7   ;   < .   o + @ . $         G % X   . X # & @ % w b =     O : O     o     @ o X   @           ",
"    +       - % O O   3 * * N..Xo e O 9 . # #   o     O $ .   2   + #     ; < X   M J   > , O > a * X # .   +   0 & $ * o : #   ",
"< %   O $ - X     + X h 1   K $.O <   -           - .   .     @   + #     # &     o     h 6 . o %   X   $ . O . t $       o   o ",
"0 4 . .   o   % . X   @ . - o   ; .   #   O O q y   X @   $ $   o     +       X o X @ 0 >   >     - q O 4 O   X o   o $ X     $ "
};
