/* XPM */
static char *blackhole1698830691[] = {
/* columns rows colors chars-per-pixel */
"64 64 193 2 ",
"   c None",
".  c #000000",
"X  c #010E00",
"o  c #00000A",
"O  c #171C00",
"+  c #181D00",
"@  c #000012",
"#  c #00001F",
"$  c #12091C",
"%  c #242900",
"&  c #2C3000",
"*  c #000024",
"=  c #00002C",
"-  c #0E0D26",
";  c #150B26",
":  c #160B29",
">  c #180D2E",
",  c #000032",
"<  c #00003D",
"1  c #1A0E34",
"2  c #1B0F39",
"3  c #170E3D",
"4  c #1D103D",
"5  c #161330",
"6  c #3B3B32",
"7  c #4B4D00",
"8  c #444505",
"9  c #4E502B",
"0  c #000045",
"q  c #00004B",
"w  c #1E1242",
"e  c #1B144B",
"r  c #000053",
"t  c #00005C",
"y  c #1E1657",
"u  c #24154D",
"i  c #251652",
"p  c #271758",
"a  c #29195D",
"s  c #22195C",
"d  c #37335A",
"f  c #000067",
"g  c #000072",
"h  c #000079",
"j  c #170078",
"k  c #2C1A63",
"l  c #2B1D6A",
"z  c #311D6F",
"x  c #2A1C7E",
"c  c #321E74",
"v  c #331F79",
"b  c #302B68",
"n  c #35217B",
"m  c #342877",
"M  c #3A3575",
"N  c #57584F",
"B  c #5F6047",
"V  c #6E6E56",
"C  c #6A6B4D",
"Z  c #4B4773",
"A  c #6B6B6F",
"S  c #7A7B6D",
"D  c #7A7A76",
"F  c #66647E",
"G  c #86867B",
"H  c #000082",
"J  c #00008B",
"K  c #01009F",
"L  c #000090",
"P  c #150097",
"I  c #21028F",
"U  c #2A1C86",
"Y  c #2E228C",
"T  c #392283",
"R  c #3B248B",
"E  c #34288F",
"W  c #3F2794",
"Q  c #3F2896",
"!  c #3F289A",
"~  c #35269D",
"^  c #0000A4",
"/  c #270DA2",
"(  c #2C07B7",
")  c #2F19B0",
"_  c #3117B8",
"`  c #3725AC",
"'  c #392AAB",
"]  c #3827A6",
"[  c #3D2BB3",
"{  c #3A27BC",
"}  c #3D2BBD",
"|  c #3724B2",
" . c #40289A",
".. c #402897",
"X. c #442BA3",
"o. c #462DAC",
"O. c #482EAF",
"+. c #462FB3",
"@. c #492FB1",
"#. c #452FB9",
"$. c #4A30B4",
"%. c #4533BE",
"&. c #4B32BB",
"*. c #4836B9",
"=. c #5E5A96",
"-. c #7E7D87",
";. c #6B6895",
":. c #7E7D90",
">. c #5D56AE",
",. c #615BB0",
"<. c #6A66A7",
"1. c #7976A6",
"2. c #3E2AC0",
"3. c #3C25CB",
"4. c #3920C0",
"5. c #412EC5",
"6. c #412ECA",
"7. c #4635C2",
"8. c #4C34C3",
"9. c #4432CB",
"0. c #4E36CD",
"q. c #4B3CCD",
"w. c #4634D3",
"e. c #4E36D2",
"r. c #4E39D4",
"t. c #4A35DC",
"y. c #4E38DC",
"u. c #5037D3",
"i. c #5039D6",
"p. c #5039DB",
"a. c #462EE2",
"s. c #4E39E4",
"d. c #4E3AED",
"f. c #4C36E8",
"g. c #5139E3",
"h. c #513AEB",
"j. c #523BF4",
"k. c #543DFC",
"l. c #4E41C7",
"z. c #5344CB",
"x. c #5545DD",
"c. c #5844EC",
"v. c #5541ED",
"b. c #5743F3",
"n. c #5945F6",
"m. c #5742FC",
"M. c #5945FC",
"N. c #5D4AFD",
"B. c #5C4AF7",
"V. c #614EFF",
"C. c #604EF7",
"Z. c #6452FE",
"A. c #8D8D8B",
"S. c #878786",
"D. c #8F9082",
"F. c #919283",
"G. c #95958E",
"H. c #999A8F",
"J. c #8E8D9C",
"K. c #848392",
"L. c #969692",
"P. c #9A9A95",
"I. c #9B9B99",
"U. c #93929B",
"Y. c #A2A399",
"T. c #8F8DA0",
"R. c #9B9AA4",
"E. c #A5A5A2",
"W. c #ABABA6",
"Q. c #ABABA9",
"!. c #B2B2AF",
"~. c #B9B9B8",
"^. c #C3C2BE",
"/. c #BABAC1",
"(. c #C4C4C4",
"). c #CCCBCB",
"_. c #C6C6CA",
"`. c #D0D0CE",
"'. c #CDCDD0",
"]. c #D6D6D5",
"[. c #D7D7D9",
"{. c #DADAD8",
"}. c #DEDDE0",
"|. c #E5E5E5",
" X c #E7E7E8",
".X c #ECECED",
"XX c #E8E7E4",
"oX c #F0F0EE",
"OX c #F0EFF1",
"+X c #F4F4F4",
"@X c #F7F6F8",
"#X c #FEFEFE",
"$X c #F6F8F6",
/* pixels */
"                                                                                                                                ",
"                                                                                                                                ",
"                                                                                                                                ",
"                                                                                                                                ",
"                                                                                                                                ",
"                                                                                                                                ",
"                                                #X#X#X#X#X@X                                                                    ",
"                                          @X#X#X#X~.G.L.$X#X                                                                    ",
"                                          #X@X.X XF . .  X#X                                                                    ",
"                                      $X#X#XD . . x.x..  X#X  @X#X#X#X#X#X#X#X#X#X#X#X#X#X#X                                    ",
"                                    $X#X.XF.,.3.z.L ;.).@X#X#X#XXXS.L.L.G.G.G.L.G.G.L.A.(.#X                                    ",
"                                    #XoX_.. t.m.d.Z Y.#X X X.X.X/.* q q q q q 0 0 q q . I.#X                                    ",
"                                    #XG f N.m.r.. }.#X#XD . . . j N.m.M.M.n.M.M.M.N.Z.. L.#X                                    ",
"                                  #X#XG r M.h.&.. -.L.F.>.6.q.9.e.g.g.g.g.k.t.x Y Y U /.XX#X                                    ",
"                                #X#X}.:.J b.g.#.X . . 0 a.m.j.k.h.0.r.y.y.s.' . . . . .X#X@X                                    ",
"                                #X|.. q.m.0.k.w.. X m N.k.h.e.&.$.$.d.k.j.3 . . . . . .X#X#X#X                                  ",
"                  @X#X#X#X#X  $X#X X. r.k.0.j.d.9.9.t.k.y.8.8.&.&.u.g.h.j.t.9.9.9.9.2.S.F.S.$X#X#X#X                            ",
"                  #X$X X X#X#X#X.X(.r r.j.e.h.k.j.k.j.h.&.O.@.O.&.0.8.e.j.j.k.k.k.k.k.H q t ). X X#X@X                          ",
"                  #XA.. . ].#X#XG r M.s.e.p.j.j.u.i.0.$. .W Q W W W R @.p.e.i.e.j.k.j.m.M.M.* . . .X#X@X                        ",
"                  #XL., z.;.E.#XF.q M.g.e.&.y.y.8.$.X.X.T z c c c c z R o.o.@.8.s.g.g.g.h.k.r.q.z.D (.#X#X                      ",
"                  #XG.q V.h 9 |.:.L k.g.0.$.0.8.O.R T R a u u u u u u k R T W @.8.0.0.0.y.j.j.k.M.g J.|.#X@X                    ",
"                  #XL.0 M.E . . 3.k.j.g.0.$.&.O...z a k 2 ; ; ; ; : $ 3 k a c ..@.&.$.@.8.i.e.g.j.N.) . +X#X@X                  ",
"                  #XG.0 M.U . O q.k.k.e.&.&.o...c u 2 4 : ; : ; : ; ; > 2 1 i c  .O.&.0.y.j.j.h.h.k.j.z.A (.#X@X                ",
"                  #XG.q M.' s . 6.k.j.8.O.O...m u 1 $ $ ; ; ; ; ; ; ; ; ; $ 1 i n  .@.0.g.j.k.s.o.9.f.M.g J.|.#X#X              ",
"                  #XL.q n.k.t.. 6.k.e.8.@...c u $ ; ; : : ; ; ; ; ; ; ; ; ; : ; u c  .0.p.e.k.} . . ~ N.N.( . #X#X              ",
"                  #XG.q n.k.j.9.j.j.e.@.R c u 1 : ; ; ; ; ; ; : ; ; : ; ; ; ; : 1 i c Q &.p.k.} . - 0 f k.} & #X#X              ",
"                  #XG.q n.j.j.k.j.g.p.o.T a 1 $ : ; ; ; : ; ; ; ; ; ; ; ; ; ; ; $ 2 k T o.0.j.9.l * N G z.' M _.+X#X            ",
"                  #XG.q M.g.p.k.g.e.p.o.T k 3 ; ; ; ; ; ; ; ; ; : ; : ; ; : ; ; $ u k R X.&.0.g.M.* Q.#X+ K Z.. W.#X            ",
"                  #XL.q M.0.8.g.p.0.o.T a 2 : ; ; ; ; ; ; ; ; ; ; ; ; ; ; ; : ; ; > 2 k T X.0.h.B.. W.#X XR.r . Q.#X            ",
"                  #XL.q M.e.&.0.0.8.R c u ; ; ; ; ; ; ; ; ; ; ; ; ; ; ; ; ; ; ; ; ; ; u c  .8.p.v.J T.{.#X].S G _.#X            ",
"                  #XA., M.g.0.@.&.O.Q c u ; ; ; ; ; ; ; ; ; : ; ; ; ; : ; ; ; ; ; ; : i v  .@.8.i.M.( . .X#X#X#X#X#X            ",
"            @X#X#X#XoX_.r q.j.e.8.o.Q c u ; ; ; ; ; ; : ; ; ; ; ; ; ; ; ; ; ; ; ; ; : i v  .@.&.&.k.{ % @X#X@X                  ",
"            #X.X].).#X.X. 9.k.r.8.O...z u ; ; ; ; ; ; ; ; ; ; ; ; : ; : ; ; ; ; ; ; ; i v  .$.&.&.h.6.m (..X#X                  ",
"            #XA.. . `..X. 9.k.u.8.O...c i : ; ; ; ; ; ; ; ; ; ; ; ; ; ; ; ; ; ; ; ; : i v  .@.8.p.u.h.N.. E.#X                  ",
"            #XI., c.=.G  XK.H b.p.&...z u $ ; ; ; ; ; ; ; ; ; : ; ; ; ; : ; ; ; ; ; ; i c W 8.g.j.e.g.n.@ Q.#X                  ",
"            #XL., Z.H B #XG.0 M.d.e.O.R k 3 : ; : ; : ; ; ; ; ; ; ; ; ; ; ; ; ; ; 1 4 k R +.e.g.k.g.h.c.. Q.#X                  ",
"            #XI.< N.H C #XG.r n.k.j.p.o.R k 2 ; ; ; ; ; ; ; ; ; ; ; ; ; ; ; ; : $ w k R +.p.r.h.j.k.h.z.. Q.#X                  ",
"            #XF.o N.f.l.V 6 = y w.k.u.o.T p 2 $ : ; ; : ; ; ; ; ; : ; ; ; ; ; : $ 4 k T +.y.b.2.e j.k.v.. Q.#X                  ",
"            #X(.:.%.j.f.H q . . 6.k.e.@...c i 1 ; ; ; ; ; ; ; ; ; ; ; ; ; ; ; : 1 p v ..&.r.m.2.. [ s.n.. Q.#X                  ",
"            #X#X.X. 7.k.M.E . . 6.k.e.8.O. .m i ; : : ; : ; ; ; ; ; ; ; ; : : : p n  .@.0.e.m.2.. . ~ m.. Q.#X                  ",
"              #X.X. 3.m.k.e.7.s.j.j.i.8.@.$. .n i 1 $ $ ; ; ; ; ; ; : ; $ $ > i n  .&.O.0.j.k.} . . ] N.. Q.#X                  ",
"              #X#XL.<.3.k.h.g.j.j.g.0.8.&.&.O. .c p 4 w > ; ; ; ; ; ; > u 4 i n  .@.&.&.t.k.k.2.. . ] M.. Q.#X                  ",
"                #X#XG.. B.M.c.e.u.0.$.u.0.&.&.@. .c a l 4 ; : : : : $ w z a n  .$.&.&.u.h.k.k.{ . O ' N.. W.#X                  ",
"                  #X$X)., * h m.k.k.h.j.h.0.0.0.0. .T R a u i i i i u z R T  .0.u.8.$.0.g.M.f I..X. ^ V.. Q.#X                  ",
"                    #X@XL.Y.J.4.#.9.k.k.j.g.h.g.h.&.+.+.T c m v m v c R #.o.9.h.i.u.8.p.j.N.. E.#XW.1.2.. Q.#X                  ",
"                      #X#X#XXX. . s M.n.n.N.n.k.j.g.r.y.o... . ... .W +.p.e.s.k.p.u.p.j.k.b., E.#X#X^.. . Q.#X                  ",
"                          #X#X@X+X'.. , = * * < 4 w.k.j.8.@.$.$.&.0.g.j.j.k.k.k.k.h.0.k.5.5 [.@X#X#X#X@X$X#X#X                  ",
"                            @X#X#X+XY.E.E.E.W.A.. t.k.d.8.&.8.8.0.g.k.k.k.6.} #.g.g.u.k.#.. +X#X    #X#X#X#X                    ",
"                                  #X#X#X#X#X#X{.. y.b.e.&.&.p.u.s.k.b.n.b.u . . %.p.e.M.7.. @X#X                                ",
"                                  #X#XL.& 9 7 Z f.p.i.i.i.g.k.m.k.m.g . = . Y h.0.g.N.q A.$X#X#X                                ",
"                                #X#X^.<.^ / P _ k.h.g.h.[ ] } { } _ R.W.Q.8 P M.h.t.[ U.).#X@X                                  ",
"                                #X X. r.V.N.N.N.n.n.M.n.b X . + + . |.#X#XV H M.M.*.. +X#X@X                                    ",
"                                #X X. . . . . . o . @ . '.@X#X.X+X#XS & 7 r.m.N.q S.$X#X#X                                      ",
"                                #X#XE.Q.W.W.Q.Q.W.W.Q.E.$X#X#X#X.X~.,.^ / | { | U.`.#X#X                                        ",
"                                  #X#X#X#X#X#X#X#X#X#X#X#X    #X[.. x.V.N.d % . oX#X@X                                          ",
"                                                              #X].. . . . [.@X#X#X@X                                            ",
"                                                              #X$XQ.~.!.W.#X#X#X#X                                              ",
"                                                              @X#X#X#X#X#X#X                                                    ",
"                                                                                                                                ",
"                                                                                                                                ",
"                                                                                                                                ",
"                                                                                                                                ",
"                                                                                                                                ",
"                                                                                                                                "
};
