/* XPM */
static char *america_flag1698846480[] = {
/* columns rows colors chars-per-pixel */
"29 32 159 2 ",
"   c None",
".  c #250000",
"X  c #370000",
"o  c #440000",
"O  c #490000",
"+  c #540000",
"@  c #5C0000",
"#  c #650000",
"$  c #6B0000",
"%  c #760000",
"&  c #780000",
"*  c #57292C",
"=  c #191745",
"-  c #00005B",
";  c #26264A",
":  c #3D2F6A",
">  c #3A3B7B",
",  c #6A3E40",
"<  c #6E484B",
"1  c #745456",
"2  c #735C5A",
"3  c #810000",
"4  c #8F0000",
"5  c #930000",
"6  c #8A0017",
"7  c #960017",
"8  c #99001E",
"9  c #990926",
"0  c #911927",
"q  c #A12737",
"w  c #84797B",
"e  c #B0696E",
"r  c #AE7C7F",
"t  c #BE797F",
"y  c #B8797D",
"u  c #C16A72",
"i  c #C4747A",
"p  c #C8747C",
"a  c #342E84",
"s  c #303188",
"d  c #3B3888",
"f  c #2C3593",
"g  c #42418A",
"h  c #4A4995",
"j  c #514F99",
"k  c #4D529C",
"l  c #51519B",
"z  c #5B5C9E",
"x  c #765A94",
"c  c #5B6085",
"v  c #646D83",
"b  c #6F758B",
"n  c #62639F",
"m  c #767E92",
"M  c #565CA0",
"N  c #5F61A1",
"B  c #6263A1",
"V  c #6B6DA5",
"C  c #6C6FA9",
"Z  c #6569A7",
"A  c #7477AC",
"S  c #747CAE",
"D  c #7C7FAF",
"F  c #BB7F83",
"G  c #847EAA",
"H  c #C57D82",
"J  c #778093",
"K  c #798295",
"L  c #7D81AE",
"P  c #7D83B2",
"I  c #7D88B5",
"U  c #8C8385",
"Y  c #8D8688",
"T  c #848B9D",
"R  c #888E9E",
"E  c #938F91",
"W  c #8C909F",
"Q  c #BC8285",
"!  c #B69998",
"~  c #B69093",
"^  c #8083AF",
"/  c #8D85AE",
"(  c #878EAB",
")  c #8D92A2",
"_  c #9094A4",
"`  c #8185B2",
"'  c #858AB6",
"]  c #898AB7",
"[  c #898CB8",
"{  c #8E98BF",
"}  c #8D95BF",
"|  c #BFABA7",
" . c #A2A7BD",
".. c #C48489",
"X. c #C38A8D",
"o. c #CA878B",
"O. c #CA8C92",
"+. c #C39497",
"@. c #CB969A",
"#. c #CC999C",
"$. c #C89497",
"%. c #D0999B",
"&. c #CB9EA1",
"*. c #D39DA2",
"=. c #D99FA1",
"-. c #C5A1A2",
";. c #CDA3A6",
":. c #CEA6A9",
">. c #C6AAA9",
",. c #C8A9AA",
"<. c #DAA3A6",
"1. c #D3A6A9",
"2. c #DAA5A9",
"3. c #D5A9AC",
"4. c #DCAAAD",
"5. c #D4AEB2",
"6. c #DEAEB2",
"7. c #D6B2B5",
"8. c #DAB2B4",
"9. c #DCB5BA",
"0. c #D5BBBC",
"q. c #DCBCBD",
"w. c #E0AEB2",
"e. c #E1B5BA",
"r. c #E2BBBD",
"t. c #B0B0C4",
"y. c #B6B8C5",
"u. c #BABED1",
"i. c #C1B6C6",
"p. c #DBBEC3",
"a. c #E2BEC1",
"s. c #BBC0D3",
"d. c #C0C1CD",
"f. c #D5C0C6",
"g. c #DBC1C5",
"h. c #DEC5C9",
"j. c #DFC9CD",
"k. c #C2C0D0",
"l. c #DACDD2",
"z. c #D4CED5",
"x. c #DCD1D5",
"c. c #E3C2C4",
"v. c #EBC1C6",
"b. c #E1C4C9",
"n. c #EBC4C9",
"m. c #E3CBCD",
"M. c #E9CBCC",
"N. c #F3C9CE",
"B. c #F1C6CB",
"V. c #E3CFD2",
"C. c #ECCFD0",
"Z. c #F5CCD1",
"A. c #E4D2D5",
"S. c #ECD3D4",
"D. c #E5D6D9",
"F. c #EBD7DB",
"G. c #EDD8DC",
"H. c #F0D3D5",
"J. c #EDE0E4",
/* pixels */
"                                                          ",
"  y.d.                                                    ",
"  (  .                                                    ",
"  v b     = ; = ; =                                   O   ",
"  K T - N [ k [ k ] > c > : O O             + O # % 0 e 1 ",
"  m T h ' B ' N ' z C ` Z x p H u 9 7 9 5 q p i ..9.C.D.E ",
"  K T a C L B D N I L n S / J.J.G.v.v.n.v.n.G.J.F.p.7.X., ",
"  J T g ` B D B L z N L z x F t O.e.e.9.r.8.o.t X.&.q.A.E ",
"  J T d A ` C ^ V ' ^ n S / V.D.m.4.4.4.2.8.V.D.V.h.p.+., ",
"  J T a C k Z j n h z ^ k x $.o.%.c.c.c.c.r.%.X.+.&.7.j.Y ",
"  J T s } P { P { I ' f S ^ A.x.m.<.<.<.=.4.m.A.V.h.a.&.< ",
"  m ) t.z.x.l.x.l.x.k.s.s.i.#.#.<.c.c.c.n.a.*.#.&.&.7.p.G ",
"  m ) >.-.+.%.#.%.#.8.q.q.r.h.m.c.<.<.2.<.4.c.m.h.h.c.;.< ",
"  m R ! f.f.p.p.p.g.5.:.:.:.;.;.4.a.c.c.c.r.3.:.:.;.8.0.w ",
"  m ) | >.-.;.;.;.;.7.q.0.q.g.g.q.w.4.w.4.w.a.g.q.0.r.;.2 ",
"  m ) >.A.A.S.S.S.S.q.9.q.7.:.:.4.r.r.r.r.q.3.:.:.7.a.M.U ",
"  m ) 0.~ r Q Q Q Q c.H.C.C.S.S.M.e.e.e.e.e.M.S.V.C.M.+.* ",
"  J T .             $ & $ 6 X.Q @.N.N.B.Z.v.o...y 3 # X   ",
"  m R                           @ 5 5 5 5 5               ",
"  m R                                                     ",
"  m R                                                     ",
"  m R                                                     ",
"  m R                                                     ",
"  m R                                                     ",
"  m R                                                     ",
"  m R                                                     ",
"  m R                                                     ",
"  K R                                                     ",
"  m R                                                     ",
"  m R                                                     ",
"  m R                                                     ",
"  m R                                                     "
};
