/* XPM */
static char *_580cc0c686e4ddee0d271e908d485f3dXdjyUVd7TtOM9zn[] = {
/* columns rows colors chars-per-pixel */
"64 58 199 2 ",
"   c None",
".  c #000071",
"X  c #002A7C",
"o  c #163A76",
"O  c #15407E",
"+  c #85110B",
"@  c #94100D",
"#  c #971512",
"$  c #BC0000",
"%  c #B70600",
"&  c #A40F13",
"*  c #B70F12",
"=  c #A41210",
"-  c #BD1306",
";  c #852826",
":  c #9A2D2C",
">  c #9B2D26",
",  c #8D322C",
"<  c #9E3129",
"1  c #862D33",
"2  c #982E30",
"3  c #993537",
"4  c #AC2E2E",
"5  c #AB312E",
"6  c #A4332C",
"7  c #BC312E",
"8  c #B72F31",
"9  c #A53333",
"0  c #A83232",
"q  c #AB3A37",
"w  c #B53734",
"e  c #B23835",
"r  c #BB3B34",
"t  c #BB3B39",
"y  c #BA3437",
"u  c #C50300",
"i  c #CC0B09",
"p  c #CC060A",
"a  c #D20100",
"s  c #D40D00",
"d  c #D50F08",
"f  c #CE1104",
"g  c #C81707",
"h  c #D41803",
"j  c #D31A16",
"k  c #C81A11",
"l  c #CD200E",
"z  c #CB211A",
"x  c #C4251B",
"c  c #D92219",
"v  c #D7241B",
"b  c #C62E2A",
"n  c #DA2D24",
"m  c #D02C24",
"M  c #C8372D",
"N  c #D4352F",
"B  c #DA392E",
"V  c #DD3428",
"C  c #C83733",
"Z  c #C43935",
"A  c #CC3C36",
"S  c #C43B39",
"D  c #CB3C3A",
"F  c #C53537",
"G  c #D53A34",
"H  c #DB3A33",
"J  c #D43D3A",
"K  c #DC3D3A",
"L  c #D43733",
"P  c #E1302A",
"I  c #E13931",
"U  c #C74039",
"Y  c #D3433B",
"T  c #DC433B",
"R  c #DF4134",
"E  c #E3433B",
"W  c #E74036",
"Q  c #B83940",
"!  c #C23D40",
"~  c #BC4343",
"^  c #B24951",
"/  c #A8474F",
"(  c #8A615D",
")  c #BA5E60",
"_  c #AF756F",
"`  c #C44748",
"'  c #D84043",
"]  c #CF5957",
"[  c #CB5C5B",
"{  c #D55348",
"}  c #E74A42",
"|  c #CC645C",
" . c #CA6967",
".. c #C2746F",
"X. c #CB706A",
"o. c #D97575",
"O. c #A9827D",
"+. c #C1807C",
"@. c #003A81",
"#. c #00319D",
"$. c #153F90",
"%. c #00289A",
"&. c #004595",
"*. c #1B4898",
"=. c #254989",
"-. c #2E549D",
";. c #3F5B94",
":. c #184AA3",
">. c #0843A5",
",. c #2350A3",
"<. c #475F9D",
"1. c #435286",
"2. c #4763A3",
"3. c #6777A4",
"4. c #71818B",
"5. c #7C8D9D",
"6. c #7D8CB7",
"7. c #7A84A6",
"8. c #81919F",
"9. c #B9928B",
"0. c #8A96B6",
"q. c #949BB0",
"w. c #8FA6BD",
"e. c #94A1BE",
"r. c #ABA7A4",
"t. c #AAAEBF",
"y. c gray75",
"u. c #C7968E",
"i. c #D4958F",
"p. c #D8968D",
"a. c #CF9593",
"s. c #C29F9A",
"d. c #D59393",
"f. c #D79B97",
"g. c #D28A86",
"h. c #E19894",
"j. c #E18686",
"k. c #DDAAA4",
"l. c #D6A9A8",
"z. c #DAB1A9",
"x. c #DEB0B2",
"c. c #E4B2AB",
"v. c #E9B6B7",
"b. c #E0A9A4",
"n. c #DDC2BE",
"m. c #C7C0BB",
"M. c #9DACC5",
"N. c #97A7C2",
"B. c #8EA5C4",
"V. c #A0B0CB",
"C. c #B6BED1",
"Z. c #C3BFC3",
"A. c #E4BEC9",
"S. c #BEC4C2",
"D. c #B8CAD9",
"F. c #C3C2C2",
"G. c #C4C5C9",
"H. c #CCCCCA",
"J. c #DCD4CE",
"K. c #D0CED0",
"L. c #D6D6D5",
"P. c #D6DCDC",
"I. c #DAD9DA",
"U. c #D1CAC7",
"Y. c #FAC7CB",
"T. c #F9C8CA",
"R. c #EFD6D5",
"E. c #FBD8D7",
"W. c #E9C8D0",
"Q. c #DFE1DF",
"!. c #FFE3DF",
"~. c #C7D2EB",
"^. c #DCDEEE",
"/. c #C8D8F0",
"(. c #C2CCE5",
"). c #E0DAE0",
"_. c #F4DDE4",
"`. c #FFDEE9",
"'. c #DCE5F0",
"]. c #E5E4E5",
"[. c #EBEBEB",
"{. c #E7E7E7",
"}. c #F5E2E4",
"|. c #FFE1E3",
" X c #FDEAE5",
".X c #FAE4E8",
"XX c #F3EBEA",
"oX c #FCEAEB",
"OX c #F6E8E7",
"+X c #FDF1E9",
"@X c #E5EBF5",
"#X c #FFEDF2",
"$X c #F5F5F5",
"%X c #FBF4F5",
"&X c #FEFCF5",
"*X c #F7F6F9",
"=X c #FEF6FA",
"-X c #F5FBFC",
";X c #FEFEFE",
/* pixels */
"                                                                                                                                ",
"                                                                    1 1 1 , +   F.F.F.  F.Z.F.F.F.F.F.                          ",
"                                                                  r K J G E h f.;X;X;X;X;X;X;X;X;X;X;X;X;X;X;X;X;X;X;X[.        ",
"                                                                  M H H B W s f.;X;X;X;X;X;X;X;X;X;X;X;X;X;X;X;X;X;X;X[.        ",
"                                                                  q D D A Y k a.;X;X;X;X;X;X;X;X;X;X;X;X;X;X;X;X;X;X;X[.        ",
"                                                                    ; ; ; ; + ( r.r.r.r.    L.;X;X;X;X;X;X;X;X;X].              ",
"                                                                                            L.;X;X;X;X;X;X;X;X;XQ.              ",
"                                                                                            L.;X;X;X;X;X;X;X;X;XI.              ",
"                                                                                            ].;X;X;X;X;X;X$X[.$X                ",
"                                                                                      $X;X*X;X;X;X;X;X;X*X                      ",
"                                                                                      $X;X;X;X;X;X;X;X;X;X                      ",
"                                                                                      *X;X;X;X;X;X;X;X;X;X                      ",
"                                              3 5 5 6 w = 9.J.L.P.I.I.P.8.O o 5.P.I.).-X;X;X;X;X;X[.                            ",
"                                              D K G G E i c.;X;X;X;X;X;XV.,.,.M.;X;X;X;X;X;X;X;X;X{.                            ",
"                                              G K G G E p k.;X;X;X;X;X;XN.%.#.0.-X;X;X;X;X;X;X;X;X{.                            ",
"                                              e w e w t & s.XX[.[.@X@X@XM.3.3.t.;X;X;X;X;X;X;X;X;X}.                            ",
"                                                                  <.2.1.~.-X$X*X;X;X;X;X;X;X;X;X;XE.^ S Z Z C Q 3               ",
"                                                                  ;.2.=./.;X;X;X;X;X;X;X;X;X;X;X&XE.` H H B H K 9               ",
"                                                                  X &.. ~.;X;X;X;X;X;X;X;X;X;X;X;XE.~ L G H H G 0               ",
"                                                            [.  {.D.D.C.@X;X;X;X;X;X;X-X*X;XR.l.x.h.D H H H N H 4               ",
"                                                          F.;X;X;X;X;X;X;X;X;X;X;X;X;X;X;X&Xk.$ a s H H H G G H 5               ",
"                                                          F.;X;X;X;X;X*X;X;X;X;X;X;X;X;X;X;Xz.% T A M M N L G J 0               ",
"                                                          F.;X;X;X;X;X;X%X X X XoX X+X=X;X&Xc.` [ ] [ [ ] ` y ! 3               ",
"                          [.[.[.[.[.[.[.[.[.[.[.[.[.[.[.[.$X;X;X;X;X;X;Xl. .X.X.X. ._ OX;X;X#X`..X|.|.!. X                      ",
"                          ;X;X;X;X;X;X;X;X;X;X;X;X;X;X;X;X;X;X;X;X;X;X%Xp.a P n I n ` .X;X;X;X;X;X;X;X;X-X                      ",
"                          ;X;X;X;X;X;X;X;X;X;X;X;X;X;X;X;X;X;X;X;X;X;X=Xh.c E M g $ 8 OX;X&X;X;X;X;X&X;X-X                      ",
"                        [.;X;X;X;X;X;X;X;X;X;X;X;X;X;X;X;X;X;X;X%XW.A.v.o.n V | f.f.l.%X;X;X;X;X;X;X;X;X-X                      ",
"            *X;X;X;X;X;X;X;X;X;X;X;X;X;X;X;X;X;X;X;X;X;X;X;X;X;XoX~ $ x b T f p.%X=X;X;X;X;X;X;X;X;X;X;X;X;X;X;X;X;X;X[.        ",
"            $X;X;X;X;X;X;X;X;X;X;X;X;X;X;X;X;X;X;X;X;X;X;X;X;X;X X{ V R H T u u.%X;X;X;X;X;X;X;X;X;X;X;X&X;X;X;X;X;X;X[.        ",
"            [.;X$X$X$X$X*X;X;X;X;X;X;X;X;X;X;X;X;X;X;X;X;X;X;X;XoX) ~ ` S K j g. XoX#X;X;X;X;X;X;X;X;X;X;X*X$X*X$X*X;X[.        ",
"                          ;X;X;X;X;X;X;X;X;X;X;X;X;X;X;X;X;X;X;X=X_._.E.j.c K ` ....+.oX;X;X;X;X;X;X;X;X;X                      ",
"                          ;X;X;X;X;X;X;X;X;X;X;X;X;X;X;X;X;X;X;X;X;X;X;Xf.c } G m k S .X;X&X;X;X;X;X&X;X-X                      ",
"                          ;X;X;X;X;X;X;X;X;X;X;X;X;X;X;X;X;X;X;X;X;X;X=Xi.u j f v h b .X;X;X;X;X;X;X;X;X;X                      ",
"                          I.I.I.I.I.I.I.I.I.I.I.I.I.I.I.I.{.;X;X;X;X;X;Xn.a.i.d.d.i.u.OX*X%X_.Y.Y.Y.Y.T.T.g.                    ",
"                                                          F.;X;X;X;X;X;X;X;X&X=X=X=X&X;X*X;Xz.% C b 7 7 b F D ' 3               ",
"                                                          F.;X;X;X;X;X;X;X;X;X;X;X;X;X;X;X;Xz.z } Y Y J T G G J 9               ",
"                                                          y.;X;X;X;X;X;X;X;X;X;X;X;X;X;X;X&Xk.$ z l H H H G B H 5               ",
"                                                                  w.B.0.^.;X;X;X;X;X;X;X;X;X}.W.R.v.D G H H B H 5               ",
"                                                                  @.*.X ~.;X;X;X;X;X&X;X;X;X;X;X;XE.~ G G B B H 9               ",
"                                                                  =.-.@./.;X;X;X;X;X;X;X;X;X;X;X&XE.` K H I H ' 9               ",
"                                                                  6.6.7.(.'.^.[.;X;X;X;X;X;X;X;X;XE./ y w r y Q                 ",
"                                              S D S Z Y * l.;X;X;X-X-X;Xe.*.$.q.;X;X;X;X;X;X;X;X;X{.                            ",
"                                              A H G B E p b.;X;X;X;X;X;XN.>.:.e.;X;X;X;X;X;X;X;X;X[.                            ",
"                                              U J J G T i c.;X;X;X;X;X;XM.:.:.N.;X;X;X;X;X;X;X;X;X{.                            ",
"                                              , : : > < @ O.m.S.S.F.Z.S.4.o o 4.G.G.Z.*X;X;X;X;X;X$XI.I.I.                      ",
"                                                                                      *X;X;X;X;X;X;X;X;X;X                      ",
"                                                                                      *X;X;X;X;X;X;X;X;X*X                      ",
"                                                                                      $X*X%X*X;X;X;X-X;X-X                      ",
"                                                                                            I.;X;X;X;X;X;X*X$X*XL.              ",
"                                                                                            I.;X;X;X;X;X;X;X;X;XI.              ",
"                                                                                            L.;X;X;X;X;X;X;X;X;X                ",
"                                                                  , : 2 : 6 # _ U.H.H.H.H.H.].;X;X;X;X;X;X;X;X;XXX  K.F.        ",
"                                                                  r K J J T j f.;X;X;X;X;X;X;X;X;X;X;X;X;X;X;X;X;X;X;X[.        ",
"                                                                  M I H B W s d.;X;X;X;X;X;X;X;X;X;X;X;X;X;X;X;X;X;X;X[.        ",
"                                                                  q S t w U - u.%X$X$X$X$X$X$X$X$X$X$X$X$X$X$X$X$X$X*X{.        ",
"                                                                                                                                ",
"                                                                                                                                ",
"                                                                                                                                "
};
