/* XPM */
static char *eaf5fc2bea2b4873807d00d5aabcbf263FXZNMQfRYhVDVKO[] = {
/* columns rows colors chars-per-pixel */
"58 64 205 2 ",
"   c None",
".  c #000071",
"X  c #002A7C",
"o  c #163A76",
"O  c #15407E",
"+  c #85110B",
"@  c #94100D",
"#  c #971512",
"$  c #BC0000",
"%  c #B70600",
"&  c #A40F13",
"*  c #B70F12",
"=  c #A41210",
"-  c #BD1306",
";  c #852826",
":  c #9A2D2C",
">  c #9B2D26",
",  c #8D322C",
"<  c #9E3129",
"1  c #862D33",
"2  c #982E30",
"3  c #993537",
"4  c #AC2E2E",
"5  c #AB312E",
"6  c #A4332C",
"7  c #BC312E",
"8  c #B72F31",
"9  c #A53333",
"0  c #A83232",
"q  c #AB3A37",
"w  c #B23835",
"e  c #BB3B34",
"r  c #B93737",
"t  c #C50300",
"y  c #CC0B09",
"u  c #CC060A",
"i  c #D20100",
"p  c #D40D00",
"a  c #D50F08",
"s  c #CB1405",
"d  c #D41803",
"f  c #D31A16",
"g  c #C81A11",
"h  c #CD200E",
"j  c #C8221A",
"k  c #D92219",
"l  c #D7241B",
"z  c #C62E2A",
"x  c #DA2D24",
"c  c #D02C24",
"v  c #C8372D",
"b  c #D4352F",
"n  c #DA392E",
"m  c #DD3428",
"M  c #C83733",
"N  c #C43935",
"B  c #C43B39",
"V  c #CB3C3A",
"C  c #C83836",
"Z  c #D53A34",
"A  c #DB3A33",
"S  c #D43D3A",
"D  c #DC3D3A",
"F  c #D43733",
"G  c #E1302A",
"H  c #E13931",
"J  c #C74039",
"K  c #D3433B",
"L  c #DC433B",
"P  c #DF4134",
"I  c #E3433B",
"U  c #E74036",
"Y  c #B83940",
"T  c #C23D40",
"R  c #BC4343",
"E  c #AD4850",
"W  c #8A615D",
"Q  c #BA5E60",
"!  c #AF756F",
"~  c #C44748",
"^  c #D84043",
"/  c #CF5957",
"(  c #CB5C5B",
")  c #D55348",
"_  c #E74A42",
"`  c #CC645C",
"'  c #CA6967",
"]  c #C5736D",
"[  c #D97575",
"{  c #A9827D",
"}  c #C1807C",
"|  c #003A81",
" . c #00319D",
".. c #153F90",
"X. c #00289A",
"o. c #1B4898",
"O. c #004595",
"+. c #254989",
"@. c #2E549D",
"#. c #3F5B94",
"$. c #184AA3",
"%. c #0843A5",
"&. c #2350A3",
"*. c #475F9D",
"=. c #435286",
"-. c #4763A3",
";. c #6777A4",
":. c #71818B",
">. c #7C8D9D",
",. c #7D8CB7",
"<. c #7A84A6",
"1. c #81919F",
"2. c #B9928B",
"3. c #8A96B6",
"4. c #949BB0",
"5. c #8FA6BD",
"6. c #94A1BE",
"7. c #ABA7A4",
"8. c #AAAEBF",
"9. c gray75",
"0. c #C7968E",
"q. c #D4958F",
"w. c #D8968D",
"e. c #CF9593",
"r. c #C29F9A",
"t. c #D59393",
"y. c #D79B97",
"u. c #D28A86",
"i. c #E19894",
"p. c #E18686",
"a. c #DDAAA4",
"s. c #D6A9A8",
"d. c #DAB1A9",
"f. c #DEB0B2",
"g. c #E4B2AB",
"h. c #E9B6B7",
"j. c #E0A9A4",
"k. c #DDC2BE",
"l. c #C7C0BB",
"z. c #9DACC5",
"x. c #97A7C2",
"c. c #8EA5C4",
"v. c #A0B0CB",
"b. c #B6BED1",
"n. c #C3BFC3",
"m. c #E4BEC9",
"M. c #BEC4C2",
"N. c #B8CAD9",
"B. c #C3C2C2",
"V. c #C4C5C9",
"C. c #CCCCCA",
"Z. c #DCD4CE",
"A. c #D0CED0",
"S. c #D6D6D5",
"D. c #D6DCDC",
"F. c #DAD9DA",
"G. c #D1CAC7",
"H. c #FAC7CB",
"J. c #F9C8CA",
"K. c #EFD6D5",
"L. c #FBD8D7",
"P. c #E9C8D0",
"I. c #DFE1DF",
"U. c #FFE3DF",
"Y. c #C7D2EB",
"T. c #DCDEEE",
"R. c #C8D8F0",
"E. c #C2CCE5",
"W. c #E0DAE0",
"Q. c #F4DDE4",
"!. c #FFDEE9",
"~. c #DCE5F0",
"^. c #E5E4E5",
"/. c #EBEBEB",
"(. c #E7E7E7",
"). c #F5E2E4",
"_. c #FFE1E3",
"`. c #FDEAE5",
"'. c #FAE4E8",
"]. c #F3EBEA",
"[. c #FCEAEB",
"{. c #F6E8E7",
"}. c #FDF1E9",
"|. c #E5EBF5",
" X c #FFEDF2",
".X c #F5F5F5",
"XX c #FBF4F5",
"oX c #FEFCF5",
"OX c #F7F6F9",
"+X c #FEF6FA",
"@X c #F5FBFC",
"#X c #F9FBFD",
"$X c #FEFBFD",
"%X c #FAFEFD",
"&X c #FDFDFD",
"*X c #FDFCFC",
"=X c #FEFDFD",
"-X c #FFFFFD",
";X c #FEFDFE",
":X c #FCFFFF",
">X c #FEFEFE",
",X c white",
"<X c #FFFEFF",
"1X c #FDFEFE",
"2X c #FEFEFE",
/* pixels */
"                                                                                                                    ",
"                                                                                                                    ",
"                                                                                                                    ",
"                                                                                                                    ",
"    (./.(.                                            /./.(.                                          B././.(.      ",
"    ,X,X,X                                            ,X,X,X                                          A.,X,XOX      ",
"    ,X,X,X                                            ,X,XOX                                            ,X,X.X      ",
"    ,X,X,X^.I.F.                3 9 0 4 0 0 3         ,X,X.X        3 0 5 5 0 9                 S.F.  ].,X,X.X      ",
"    ,X,X,X,X,X,X.X              Y D Z Z Z S T         ,X,XOX        ^ S A A A ^ Y               OX,X,X,X,X,X.X      ",
"    ,X,X,X,X,X,X/.              C A A b F Z 7         ,X,X.X        V F n n n A r               .X,X,X$X,X,X.X      ",
"    ,X,X,X,X,X,X.X              C n A A F F ~         ,X=XXX      u.C Z F Z n A e               #X,X,X,X,X,X.X      ",
"    ,X,X,X,X,X,X,X#X$X,X        N A F A A b / `.%X#X#X=XoX,X%X#X%XJ.z L A A F A r       F.,X#X#X,X,X,X,X,X,X.X      ",
"    ,X,X,X,X,X,X%X,X,X,X        B A F A Z v ( U.,X,X,X,X,X,X,X,X,XJ.7 S A F F D r       F.,X,X,X,X,X,X,X,X,X.X      ",
"  B.,X,X,X,X,X,X,X%X,X,X        E ~ R V A v ( _.=XoX,X,X,X,X,XoX=XH.7 K A V R ~ E       F.,X,X#X,X,X,X,X,X,X.X      ",
"  B.,X,X,X,X,X,X$X,X,X=X/.(.(.).L.L.L.i.p v / _.,X=X,X,X,X,X,X=X,XH.z K h h.L.L.L.(./.(..X,X,X$X$X,X,X,X,X,X.X      ",
"  B.,X,X,X,X,X,X,X%X%X$X,X,X,X,X$XoX,Xf.i L ( _.,X,X,X,X=X,X%X%X,XH.M _ j K.,XoX=X,X,X,X,X,X%X,X,X,X,X,X,X,X.X      ",
"  B.,X,X,X,X,X,X,X%X%X,X=X,X,X,X,X%X,Xs.$ % ~ !.,X%X%X,X,X%X%X%X,XH.% j $ P.,X%X,X,X,X,X,X,X%X,X,X,X,X,X,X,X.X      ",
"  B.,X,X,XS.S.S.^.,X#X,X,X,X,X$X,X,X,XK.a.d.g. X,X=X%X,X,X%X%X=X,XQ.d.d.a.).,X,X,X$X,X,X,X,X,X#XF.F.S.^.,X,X.X      ",
"  n.,X,X,X        XX$X#X,X,X,X,X,X,X%X=XoX=X=X$X=XoX,X,X$X,X%XoX,XXX=X=XoX=X,X,X,X,X,X,X%X,X,XXX      C.,X,X.X      ",
"  B.,X,X,X        ,X,X,X,X,X,X=X,X,X,X#X%X%X=X,X,X,X,X,X$X$X,X%X,X#X#X%X%X,X,X,X,X,X,X,X,X,X,XXX      C.,X,X.X      ",
"    ,X,X,X7.      .X.XOX#X,X,X%X%X,X,X$X,X,XoX{.'.{.XX,X,X$X[.{.).{.=X,X,X,X,X,X%X=X,X,XOXOXXX.X      C.,X,X.X      ",
"  B.,X,X,X7.            W.,X%X%X%X=X=X,X,X=X}.! ~ 8 s.$X,X X} B z 0.oX=X,X,XoX=X%X=XoX,Xn.            C.,X,X.X      ",
"  B.,X,X,X7.            F.,X=X=X%X,X=X,X$X,X[.' x $ y.+X$X[.] g d t.+X$X$X,X%X%X$X=X,X,XV.            C.,X,X.X      ",
"  B.,X$X,X7.            D.,X#X,X,X%X%X,X$X$X[.' H s y.XX+X[.] c l t.+X$X,X,X%X%X$X,X,X,XV.            G.,X$XXX      ",
"    y.y.e.W             >.z.3.8.#X%X%X%X,X,X`.' x v ` w.0.u.~ Z s t.oX$X,X%X,X,X/.4.6.x.:.            ! y.t.0.      ",
"  + d p g +             o &. .;..X=X,X%X=X=X`.' G I m s t f A _ f q.oX=X%X%X,X,XT...$.$.o             # f p -       ",
"  , I U K ;             O &.X.;.@X,X,X,X%X,X[.' i k x L L D k k t e.oX,X%X,X,X,X~.o.%.$.o             6 L U J       ",
"  1 Z n V ;             1.v.x.z.Y.R.Y.|.,X,XXXs.w.i.[ z A B p.y.q.k.$X,X,XT.Y.R.E.6.x.z.:.            : S n r       ",
"  1 S A V ;             D.,X,X|.=.+.. b.,X$X=X$XXXoXh.j U ~ L.=XoX=X%X$X,X3.X | <.%X,X,XM.            2 S A r       ",
"  1 D A V ;             F.,X,X|.-.-.O.N.,X,X=X,X%X,Xm.$ m R Q.,X$X=X=X,X,Xc.o.@.,.#X,X,Xn.            : D H B       ",
"    e v q               F.,X,X|.*.#.X N.,X=X=X$X,X,XP.R ) Q Q.,X$X$X=X,X%X5.| +.,.%X,X,XB.            , e v q       ",
"                        D.,X,X(.      (.,X,X,X,X,X,XXX{.`.[.+X,X,X,X,X,X,X        ,X,X,XM.                          ",
"                        S.,X,X/.        ,X,X,X,X,X,X,X,X,X,X,X,X,X,X,X,X,X        ,X,X,XM.                          ",
"                        Z.,X=X].      /.,X,X,X,X,X,X,X,X$X$X,X,X,X,X,X,X,X        =X=X,Xl.                          ",
"                        2.g.a.r.        B.B.B..X,X,X,X,X,X,X,X,X,X(.B.B.9.        s.j.g.{                           ",
"                        = y u &               (.,X,X,X,X,X,X,X,X,XF.              * u y @                           ",
"                        w I I e               /.,X,X,X,X,X,X,X,X,XF.              K I L <                           ",
"                        6 Z F w               (.,X,X,X,X,X,X,X,X,XF.              N n Z >                           ",
"                        5 Z Z w               (.,X,X,X,X,X,X,X,X,XF.              B F S :                           ",
"                        5 A A r               (.,X,X,X,X,X,X,X,X,XF.              V A S :                           ",
"                        2 V Z w               (.,X,X,X,X,X,X,X,X,XF.              B F J ,                           ",
"                                              (.,X,X,X,X,X,X,X,X,XF.                                                ",
"                                              (.,X,X,X,X,X,X,X,X,XF.                                                ",
"                                              (.,X,X,X,X,X,X,X,X,XF.                                                ",
"                                              (.,X,X,X,X,X,X,X,X,XF.                                                ",
"                                              (.,X,X,X,X,X,X,X,X,XF.                                                ",
"                                              (.,X,X,X,X,X,X,X,X,XF.                                                ",
"                                              (.,X,X,X,X,X,X,X,X,XF.                                                ",
"                                              /.,X,X,X,X,X,X,X,X,XF.                                                ",
"                                              /.,X,X,X,X,X,X,X,X,XF.                                                ",
"                                              /.,X,X,X,X,X,X,X,X,XF.                                                ",
"                                                    /.,X,X#X                                                        ",
"                                                      ,X,X.X                                                        ",
"                                                      ,X,X.X                                                        ",
"                                                      ,X,X.X                                                        ",
"                                                      ,X,X.X                                                        ",
"                                                      ,X,X,X                                                        ",
"                                                      #X.X(.                                                        ",
"                                                                                                                    ",
"                                                                                                                    ",
"                                                                                                                    ",
"                                                                                                                    ",
"                                                                                                                    ",
"                                                                                                                    "
};
