/* XPM */
static char *fuseeE1698830692[] = {
/* columns rows colors chars-per-pixel */
"58 64 199 2 ",
"   c None",
".  c #000071",
"X  c #002A7C",
"o  c #163A76",
"O  c #15407E",
"+  c #85110B",
"@  c #94100D",
"#  c #971512",
"$  c #BC0000",
"%  c #B70600",
"&  c #A40F13",
"*  c #B70F12",
"=  c #A41210",
"-  c #BD1306",
";  c #852826",
":  c #9A2D2C",
">  c #9B2D26",
",  c #8D322C",
"<  c #9E3129",
"1  c #862D33",
"2  c #982E30",
"3  c #993537",
"4  c #AC2E2E",
"5  c #AB312E",
"6  c #A4332C",
"7  c #BC312E",
"8  c #B72F31",
"9  c #A53333",
"0  c #A83232",
"q  c #AB3A37",
"w  c #B53734",
"e  c #B23835",
"r  c #BB3B34",
"t  c #BB3B39",
"y  c #BA3437",
"u  c #C50300",
"i  c #CC0B09",
"p  c #CC060A",
"a  c #D20100",
"s  c #D40D00",
"d  c #D50F08",
"f  c #CE1104",
"g  c #C81707",
"h  c #D41803",
"j  c #D31A16",
"k  c #C81A11",
"l  c #CD200E",
"z  c #CB211A",
"x  c #C4251B",
"c  c #D92219",
"v  c #D7241B",
"b  c #C62E2A",
"n  c #DA2D24",
"m  c #D02C24",
"M  c #C8372D",
"N  c #D4352F",
"B  c #DA392E",
"V  c #DD3428",
"C  c #C83733",
"Z  c #C43935",
"A  c #CC3C36",
"S  c #C43B39",
"D  c #CB3C3A",
"F  c #C53537",
"G  c #D53A34",
"H  c #DB3A33",
"J  c #D43D3A",
"K  c #DC3D3A",
"L  c #D43733",
"P  c #E1302A",
"I  c #E13931",
"U  c #C74039",
"Y  c #D3433B",
"T  c #DC433B",
"R  c #DF4134",
"E  c #E3433B",
"W  c #E74036",
"Q  c #B83940",
"!  c #C23D40",
"~  c #BC4343",
"^  c #B24951",
"/  c #A8474F",
"(  c #8A615D",
")  c #BA5E60",
"_  c #AF756F",
"`  c #C44748",
"'  c #D84043",
"]  c #CF5957",
"[  c #CB5C5B",
"{  c #D55348",
"}  c #E74A42",
"|  c #CC645C",
" . c #CA6967",
".. c #C2746F",
"X. c #CB706A",
"o. c #D97575",
"O. c #A9827D",
"+. c #C1807C",
"@. c #003A81",
"#. c #00319D",
"$. c #153F90",
"%. c #00289A",
"&. c #004595",
"*. c #1B4898",
"=. c #254989",
"-. c #2E549D",
";. c #3F5B94",
":. c #184AA3",
">. c #0843A5",
",. c #2350A3",
"<. c #475F9D",
"1. c #435286",
"2. c #4763A3",
"3. c #6777A4",
"4. c #71818B",
"5. c #7C8D9D",
"6. c #7D8CB7",
"7. c #7A84A6",
"8. c #81919F",
"9. c #B9928B",
"0. c #8A96B6",
"q. c #949BB0",
"w. c #8FA6BD",
"e. c #94A1BE",
"r. c #ABA7A4",
"t. c #AAAEBF",
"y. c gray75",
"u. c #C7968E",
"i. c #D4958F",
"p. c #D8968D",
"a. c #CF9593",
"s. c #C29F9A",
"d. c #D59393",
"f. c #D79B97",
"g. c #D28A86",
"h. c #E19894",
"j. c #E18686",
"k. c #DDAAA4",
"l. c #D6A9A8",
"z. c #DAB1A9",
"x. c #DEB0B2",
"c. c #E4B2AB",
"v. c #E9B6B7",
"b. c #E0A9A4",
"n. c #DDC2BE",
"m. c #C7C0BB",
"M. c #9DACC5",
"N. c #97A7C2",
"B. c #8EA5C4",
"V. c #A0B0CB",
"C. c #B6BED1",
"Z. c #C3BFC3",
"A. c #E4BEC9",
"S. c #BEC4C2",
"D. c #B8CAD9",
"F. c #C3C2C2",
"G. c #C4C5C9",
"H. c #CCCCCA",
"J. c #DCD4CE",
"K. c #D0CED0",
"L. c #D6D6D5",
"P. c #D6DCDC",
"I. c #DAD9DA",
"U. c #D1CAC7",
"Y. c #FAC7CB",
"T. c #F9C8CA",
"R. c #EFD6D5",
"E. c #FBD8D7",
"W. c #E9C8D0",
"Q. c #DFE1DF",
"!. c #FFE3DF",
"~. c #C7D2EB",
"^. c #DCDEEE",
"/. c #C8D8F0",
"(. c #C2CCE5",
"). c #E0DAE0",
"_. c #F4DDE4",
"`. c #FFDEE9",
"'. c #DCE5F0",
"]. c #E5E4E5",
"[. c #EBEBEB",
"{. c #E7E7E7",
"}. c #F5E2E4",
"|. c #FFE1E3",
" X c #FDEAE5",
".X c #FAE4E8",
"XX c #F3EBEA",
"oX c #FCEAEB",
"OX c #F6E8E7",
"+X c #FDF1E9",
"@X c #E5EBF5",
"#X c #FFEDF2",
"$X c #F5F5F5",
"%X c #FBF4F5",
"&X c #FEFCF5",
"*X c #F7F6F9",
"=X c #FEF6FA",
"-X c #F5FBFC",
";X c #FEFEFE",
/* pixels */
"                                                                                                                    ",
"                                                                                                                    ",
"                                                                                                                    ",
"                                                                                                                    ",
"                                                                                                                    ",
"                                                                                                                    ",
"                                                        [.*X*X                                                      ",
"                                                        ;X;X;X                                                      ",
"                                                        *X;X;X                                                      ",
"                                                        *X;X;X                                                      ",
"                                                        $X;X;X                                                      ",
"                                                        *X;X;X                                                      ",
"                                                        *X;X;X[.                                                    ",
"                                                I.;X;X;X;X;X;X;X;X;X[.                                              ",
"                                                I.;X;X;X;X;X;X;X;X;X[.                                              ",
"                                                I.;X;X;X;X;X;X;X;X;X[.                                              ",
"                                                I.;X;X;X;X;X;X;X;X;X[.                                              ",
"                                                I.;X;X;X;X;X;X;X;X;X[.                                              ",
"                                                I.;X;X;X;X;X;X;X;X;X[.                                              ",
"                                                I.;X;X;X;X;X;X;X;X;X[.                                              ",
"                                                I.;X;X;X;X;X;X;X;X;X[.                                              ",
"                                                I.;X;X;X;X;X;X;X;X;X[.                                              ",
"                                                I.;X;X=X;X;X;X;X;X;X[.                                              ",
"                          , U L S               I.;X;X;X;X;X;X;X;X;X[.              q G A 3                         ",
"                          : J H S               I.;X;X;X;X;X;X;X;X;X[.              w I K 4                         ",
"                          > K L S               I.;X;X;X;X;X;X;X;X;X[.              e G G 0                         ",
"                          > G B Z               I.;X;X;X;X;X;X;X;X;X[.              e H G 6                         ",
"                          < T E Y               I.;X;X;X;X;X;X;X;X;X[.              t E E e                         ",
"                          @ i i *               I.;X;X;X;X;X;X;X;X;X[.              = i j =                         ",
"                          O.c.b.z.        y.F.F.{.;X;X;X;X;X;X;X;X;X*XG.F.F.        s.k.c.9.                        ",
"                          m.;X;X;X        ;X;X;X;X;X;X;X;X;X;X;X;X;X;X;X;X;X[.      XX;X;XJ.                        ",
"                          S.;X;X;X        ;X;X;X;X;X;X;X;X;X;X;X;X;X;X;X;X;X        [.;X;XL.                        ",
"                          S.;X;X;X        ;X;X;X;X;X;X&XoXOXoX%X;X;X;X;X;X;X{.      [.;X;XP.                        ",
"      e M t ,             F.;X;X;X6.=.&.w.=X;X;X=X;X;X_.) { ~ W.;X;X&X&X=X;XD.X ;.<.@X;X;XI.              e Z r     ",
"      S I T 2             Z.;X;X-X6.-.:.B.;X&X&X;X;X;X_.~ V $ A.;X;X;X;X;X;XD.&.2.2.@X;X;XI.            ; D H E 1   ",
"      t G J 2             S.;X;X;X7.X X 0.;X;X;X&X=X&XE.` R z A.&X=X&X;X=X;XD.. =.1.@X;X;XP.            ; D H J 1   ",
"      w H J >             4.M.M.e.(./.~.^.;X;X;Xn.i.f.j.D G b o.h.p.l.%X;X;X@X~././.M.N.V.8.            ; D H G 1   ",
"      U I T 6             o *.>.*.'.;X;X;X-X;X&Xa.u c j H E H n v a ) oX;X;X;X;X;X-X3.%.,.O             ; Y I E ,   ",
"      - d j #             o :.:.$.'.;X;X&X;X;X&Xa.c } I j u i V E P X. X;X;X=X;X&X$X3.#.,.o             + k s h +   ",
"      u.f.f._             4.N.e.q.[.;X;X;X;X;X&Xi.f G ` p.u.p.| M n X.oX;X;X;X-X;X;XV.0.M.5.            ( a.f.f.    ",
"      %X;X;XU.            G.;X;X;X=X-X;X;X;X;X=Xd.v m .. X=X%Xf.g I X.oX=X=X;X;X;X;X;X=X;X^.            r.;X;X;XF.  ",
"      $X;X;XH.            G.;X;X;X;X;X-X;X*X=X=Xi.h k ..oX;X=Xf.$ n  .oX;X;X;X;X;X-X;X;X;XI.            r.;X;X;XF.  ",
"      $X;X;XH.            Z.;X;X;X;X;X&X;X;X;X&Xu.F S +.%X;X&Xl.7 ` _ !.;X&X;X;X;X-X*X&X;X).            r.;X;X;XF.  ",
"      *X;X;XH.      *X*X-X*X;X;X&X-X;X;X;X;X;X&XOX.XOXXX=X;X;X#X.X.XOX&X;X;X;X;X;X;X;X;X;X=X-X$X*X      r.;X;X;X    ",
"      *X;X;XH.      *X;X;X;X;X;X;X;X;X;X;X;X;X$X*X;X;X;X;X=X;X;X;X;X;X;X;X-X*X;X;X;X;X;X;X;X;X;X;X        ;X;X;XF.  ",
"      *X;X;XH.      %X;X;X;X;X;X;X;X;X;X;X&X&X;X=X*X&X;X;X;X;X;X&X;X;X;X&X&X;X=X;X;X;X;X;X;X;X*X%X        ;X;X;XF.  ",
"      *X;X;X].L.L.P.=X;X;X;X;X;X;X;X;X;X}.k.z.z._.;X;X;X;X;X;X-X&X;X#Xx.z.k.R.;X;X;X=X;X;X;X;X;X;X].L.I.L.;X;X;XF.  ",
"      %X;X;X;X;X;X;X;X-X;X=X;X;X;X*X;X;XW.$ x % T.;X;X-X;X;X;X;X;X;X`.` - $ l.;X;X;X;X;X;X;X;X-X;X;X;X;X;X;X;X;XF.  ",
"      *X;X;X;X;X;X;X=X;X;X;X;X;X;X;X&X;XR.l E A T.;X;X;X;X&X;X;X;X;X.X[ T a c.;X;X&X;X;X;X;X;X;X;X;X;X;X;X;X;X;XF.  ",
"      *X;X;X;X;X;X;X;X;X;X$X{.[.}._.E.E.v.l Y b T.;X;X;X;X;X;X;X&X;X`.] A i h.E.E.E.}.{.{.[.;X;X=X;X;X;X;X;X;X;XF.  ",
"      $X;X;X;X;X;X;X;X;X;XI.      / ` ~ D H Y 7 T.;X&X;X;X;X;X;X&X;X|.[ M H D ~ ~ ^         ;X;X;X;X;X;X;X;X;X;XF.  ",
"      $X;X;X;X;X;X;X;X;X;XP.      e K N H B D 7 T.;X;X;X;X;X;X;X;X;X!.[ M H H L G F         ;X;X;X;X;X;X;X;X;X;X    ",
"      $X;X;X;X;X;X;X=X&X;XI.      t H H H B T b T.&X;X=X;X&X;X;X;X-X X] N H B G H Z         ;X;X-X;X;X;X;X;X;X;X    ",
"      $X;X;X;X;X;X-X              r I B G L J F g.      $X;X;X        ` L H G B B Z               $X;X;X;X;X;X;X    ",
"      $X;X;X;X;X;X*X              y I H B B L D         $X;X;X        7 J G N B H C               [.;X;X;X;X;X;X    ",
"      $X;X;X;X;X;X-X              Q ' K I H J '         -X;X;X        ! Y H H K K Q               $X;X;X;X;X;X;X    ",
"      $X;X;XXX  R.L.                q 0 0 5 0 3         *X;X;X        3 9 0 4 0 9 3                 I.Q.].;X;X;X    ",
"      $X;X;X                                            $X;X;X                                            ;X;X;X    ",
"      *X;X;XL.                                          ;X;X;X                                            ;X;X;X    ",
"      {.[.[.F.                                          [.[.[.                                            [.[.[.    ",
"                                                                                                                    ",
"                                                                                                                    ",
"                                                                                                                    ",
"                                                                                                                    "
};
