/* XPM */
static char *moon1698850042[] = {
/* columns rows colors chars-per-pixel */
"64 64 116 2 ",
"   c None",
".  c #000000",
"X  c #070900",
"o  c #0C0C00",
"O  c #141402",
"+  c #14140C",
"@  c #191A0B",
"#  c #141414",
"$  c #1F1F15",
"%  c #1D1D19",
"&  c #202016",
"*  c #21211B",
"=  c #211F2B",
"-  c #252522",
";  c #272824",
":  c #292925",
">  c #222228",
",  c #2D2D2B",
"<  c #302F2E",
"1  c #2F3029",
"2  c #30302E",
"3  c #272630",
"4  c #2E2E32",
"5  c #343434",
"6  c #393936",
"7  c #373738",
"8  c #3B3B3B",
"9  c #41413E",
"0  c #272649",
"q  c #3E3E41",
"w  c #434344",
"e  c #454549",
"r  c #4B4B4C",
"t  c #52524F",
"y  c #4E4D52",
"u  c #504F53",
"i  c #525255",
"p  c #56565B",
"a  c #5A5A5E",
"s  c #535364",
"d  c #5D5C64",
"f  c #5B5B6A",
"g  c #605F67",
"h  c #616166",
"j  c #64636C",
"k  c #68676D",
"l  c #6A6A6E",
"z  c #666671",
"x  c #6B6B73",
"c  c #6D6D79",
"v  c #6F707A",
"b  c #727276",
"n  c #72727C",
"m  c #7B7B7C",
"M  c #777782",
"N  c #787782",
"B  c #797984",
"V  c #7E7E89",
"C  c #848483",
"Z  c #82828D",
"A  c #888888",
"S  c #858591",
"D  c #888794",
"F  c #8B8A95",
"G  c #8D8D99",
"H  c #93939D",
"J  c #9C9C9C",
"K  c #9695A2",
"L  c #9897A4",
"P  c #9A99A5",
"I  c #9D9CAA",
"U  c #A09FAD",
"Y  c #A09FB1",
"T  c #A4A4A5",
"R  c #A2A1AE",
"E  c #A8A8AB",
"W  c #A5A4B3",
"Q  c #A8A7B6",
"!  c #AAA9B5",
"~  c #A8A7B9",
"^  c #ADACBB",
"/  c #B0AFBE",
"(  c #B6B6B7",
")  c #B1B0BF",
"_  c #B9B9B9",
"`  c #AEADC2",
"'  c #B4B3C4",
"]  c #B8B7C7",
"[  c #BBBBC5",
"{  c #B7B6C8",
"}  c #B8B7C9",
"|  c #BCBBCC",
" . c #BFBED0",
".. c #C0BFCF",
"X. c #C0BFD0",
"o. c #C2C2C5",
"O. c #C2C2CD",
"+. c #CCCCCD",
"@. c #C4C3D2",
"#. c #C8C7D7",
"$. c #CBCBD4",
"%. c #CCCBDA",
"&. c #D2D2D3",
"*. c #D3D3DB",
"=. c #D8D7DF",
"-. c #DCDCDD",
";. c #DCDBE3",
":. c #E3E3E5",
">. c #E4E4E9",
",. c #E8E7EC",
"<. c #EBEBED",
"1. c #EEEEF1",
"2. c #F4F4F5",
"3. c #F6F6F8",
"4. c #F8F7F8",
"5. c #FEFEFE",
/* pixels */
"                                                                                                                                ",
"                                                                                                                                ",
"                                                                                                                                ",
"                                                                                                                                ",
"                                                                                                                                ",
"                                                w r t r r r r r r r w w w                                                       ",
"                                                @ . . . . . . . . . X . o                                                       ",
"                                          a   m F P _ _ _ ( _ ( _ T F F H B     r                                               ",
"                                        @ * . z ` ;.5.5.5.5.5.5.5.1.|  .%.F . 4 q                                               ",
"                                        B F J ( %.>.5.4.>.,.,.:.,.*.] ~ ~ B i w 7 w                                             ",
"                                , , . d ^ ;.5.5.5.5.5.,.' ' { { } ] @.I x M V p - , 5 5 8                                       ",
"                                j b b J O.;.4.4.1.1.2.:.] ] | { ^ ^ ` K M M B d w e r 8 7                                       ",
"                            . a ~ %.4.5.5.5.5.1.] { ] | ] ] @.W n n B m n M M M M M B i > 7 7                                   ",
"                            r x { *.4.5.5.4.5.,.| ] | } ' ' ] I n N B Z S B M M M M B p 7 7 7                                   ",
"                        $ p ! @.2.5.5.5.5.2...] | } X.Q B M B M M V v I ..L n M M M M M N y : 7 7                               ",
"                        1 a ) %.2.5.5.5.5.1.| } | ] | Q M n M B V V n P  .P n M M M M M B i 4 7 7                               ",
"                    , t W | 1.5.5.5.5.2.@.| | ] | ~ Z B B B n H | U v M S B M M M N N N M M n r , 6 7                           ",
"                    . w ~ #.4.5.4.5.5.2.| { | ] @.~ M n B B v P @.Y v M M M M M M M N B N N N r - 7 6                           ",
"                h t P ) ,.2.4.5.5.4.*.@. .] @.^ G Z B B B Z n L ..I M M M M N M N M N d e x N c x e , w C                       ",
"                8 e ^ #.2.5.5.5.5.4.| ' | ] @.^ n n B n n B n L @.R v M M M N N M M V e . z V N B e @ 8 A                       ",
"                5 r ~ @.2.5.5.4.;.%...] | ) L F B n n B B M n S L D M M M M M N B z r S I x y c B x j w b                       ",
"                . - W ..2.5.5.4.| ' | ] @.' M c V V V V V B M n v M M M N N N v n i . Y *.v . x B N B e r                       ",
"              p Z H *.,.4.5.:.;.O.] | { I K V c h h j j h x M M M M M M N N n G R x . Z Y h * x B M B y 7 p                     ",
"            w 9 ^ #.2.5.5.2.| ' | ]  .^ M x Z z * & , - . r V B M M M M N B c W %.V . j B r O z B M B y ; 8 w                   ",
"            7 w ! @.2.5.5.4.@.] | ] X./ V v x h a a i j B n g c M M M M M B v H ~ M r j z a u v M M M j y 8 5                   ",
"            @ * W | 2.5.5.4.@.{ | | @.) Z j , r V Z c H %.I . i B B M M M M M M v M V y . z V M M M M B B e 5                   ",
"            j c [ *.2.5.2.,.O.{ ] { ' R V z 7 i B B c D ' G O p B N M M M M M M B M B d w x N M M M M M M w ,                   ",
"        8 8 Q @.2.5.5.4.@.' | | @.' B c Z n , y B B M M B j + p N B M M M M M M M M M B N M N N M M M M M w , 8 7               ",
"        5 5 Q | 1.5.5.4.$.{ | ] { ! V n V n w y c n n c M j 5 d B M M M M M M M M M M M N M M N M N N N M e : 7 7               ",
"        5 5 Q X.2.5.5.5.@.' O.' Z n B M M M B j 7 5 7 7 - p M M M M M M N M M N M M M M M M M M M N N N M w , 7 5               ",
"        5 5 ! O.1.5.4.2.@.{ O.' Z n B M M M B x 7 5 7 7 ; p B B M M M B M M M B M M M M M M M M M N N N M e , 7 7               ",
"        6 2 ! ..O.O.n h ^ @.2.<.Z c V M M M N M n v c n n n M M M M M M M M M M M M M M B M N M M N N N B n c w 2               ",
"        7 2 ~ | ] { e o ^ #.5.2.D c V M M B M M M B N B N N M M M M M M B M M M B M B M M M M N M M M M M N M w 1               ",
"        5 2 ^ @.n j I Q d n 2.4.Z x B M M M M M M M M M N M N N M M M M M M M M B V V m M M M M M M M W ^ Z v e 4               ",
"        5 2 Q ] r . ' O.> 9 2.4.Z x V M M M M M M M M M N M N M M M M M M B M B B B B M M M M M M M M `  .S v r ,               ",
"        5 : $.1.l > ) ] q p 2.4.S c V M M M M M N M N M M M M N M M N M M j p d a v B M M M M M M M M ) } S v e <               ",
"        7 >   5.m . ] X.# 6 2.4.B z B M M M M M M M M M N N M M M M M M Z i . o . a v n M M M M M M M '  .S v e ,               ",
"        5 : o.>.P A H G Z J 3.4.W H V M M M M M M B M M N M N M M M B x p B G G D K U D n M B M M m M K I V v e <               ",
"        5 2 ~  .| } = . ~ #.4.4.#.' S M V B M M M M M M M N M M M M B k . L %.X.....@.K M B M M M M M v v B B e 1               ",
"        7 5 L ^ $.*.T J $.-.5.4.O.~ v f x x M M M B M M M M N M M M B h O Z W ` } } | D d v M M M M M M N z j q 5               ",
"        7 8 j B <.5.5.5.5.5.5.2.%.~ 8 . . < B V M M M M M M M M M M V d * j x W X.| @.n . z V M M M M B M 9 * 7 q               ",
"          8 j n :.5.2.4.5.5.5.2.' P c k C m x v M M M M M M M M n M V h % d z L ) ^ ' n o z B M M M M M M e 2 8 p               ",
"            > 9 :.5.4.5.5.4.5.1.9 e ' $.5.,.. 3 V N M M M M M B B B Z d ; 5 * d N n M u @ z B M M M M B M w 2                   ",
"            2 w =.4.4.5.5.5.5.1.t y ' #.4.-.h d n M M M M M M B B B B d q 8 : f n v M p 5 x B M M M M M M e 5                   ",
"            t w x Z <.5.4.5.5.<.r e { O.] $.4.-.> q B B n m B B B B M n B a , 5 7 7 , j N M N M N N M B B e 7                   ",
"            b r j V <.5.5.5.5.2.i e ' | ' $.5.-.% w V M B B B B B B M M V s 1 5 5 7 : z B M M N M M M M n r p                   ",
"                < p ,.5.4.5.5.2.| R i n ' $.5.-.> w B M B B V B m M M M m v v v v v v M N N M M N N M u 7                       ",
"                . r <.5.5.5.5.2.@.~ O p ' *.5.-.. 5 B B m B B M M M M M M M B N N N B N N M N M N N N e 2                       ",
"                5 8 H E P E 2.5.2.:.) L v c C F R Q / R V B B M N M N N M M N N N M M M M M M B N p e q 8                       ",
"                6 8 x n f Z 4.5.5.2.@.W . . . d | @.| Q n x n v v M N N M M v v n n v M M M M n v r 1 q 8                       ",
"                    a g n Z E o.2.5.,.:.&.o.I W | | | ' Q Q Q Q ~ K N B n K ! Q Q W ~ F B B M P W d 5                           ",
"                    ; 7 n Z s Z 2.5.5.5.5.4.| { ] ' ' { { | | | @.U x n j Y @.|  .| @.F f c x ) #.b ;                           ",
"                      e d j c G *.,.4.5.5.2.;.;.;.;.;.;.;.*.] ] ..^ I U I ^ | ] ] ] ] | o.E P H G l                             ",
"                        * w b D ` #.5.5.5.5.5.5.5.5.5.5.5.,.' { ' } | } | { { { { | ' 2.5.;. .c .                               ",
"                          r g n H ! &.;.,.<.4.5.5.2.=.*.-.*.*.*.*.*.*.*.*.*.*.*.*.O.{ O.+.! P n w                               ",
"                            2 , . 5 f S ` %.5.5.5.-.g z 0 ( 5.5.5.5.5.5.5.5.5.5.5.;.@.c . + 1                                   ",
"                            9 q 5 r j Z I [ :.,.4.*.S H H +.5.5.5.4.1.1.1.>.;.-.:.[ ! b , w e                                   ",
"                                7 7 5 2 o e j D { @.' ;.5.5.5.5.5.:.{ { @.V . . . % * , 6                                       ",
"                                8 9 8 w , y x F ^ { ! $.2.2.4.2.5.;.^ ^ ] V : 6 8 8 8 8 7                                       ",
"                                        7 7 5 7 7 q , d n I | | @.K : 5 q 7 < 5 7                                               ",
"                                        7 7 7 7 5 5 & p x K { ' | G & , 5 5 8 7 8                                               ",
"                                                7 7 5 7 q r i i p e ; , 8 i                                                     ",
"                                                7 7 7 5 5 , : , , 5 a A E                                                       ",
"                                                                                                                                "
};
