/* XPM */
static char *terre1698830691[] = {
/* columns rows colors chars-per-pixel */
"64 53 229 2 ",
"   c None",
".  c #000000",
"X  c #00000C",
"o  c #0A000B",
"O  c #000013",
"+  c #00001C",
"@  c #0B0219",
"#  c #061616",
"$  c #191919",
"%  c #170616",
"&  c #002500",
"*  c #003500",
"=  c #003B00",
"-  c #26241C",
";  c #000021",
":  c #00032A",
">  c #130928",
",  c #001C2B",
"<  c #02003B",
"1  c #060439",
"2  c #150C35",
"3  c #001939",
"4  c #1F1320",
"5  c #09332E",
"6  c #043725",
"7  c #032D32",
"8  c #0C3D33",
"9  c #06363C",
"0  c #093C3B",
"q  c #043A38",
"w  c #153637",
"e  c #0C272F",
"r  c #393739",
"t  c #282A2C",
"y  c #004900",
"u  c #005700",
"i  c #17481E",
"p  c #007905",
"a  c #006A10",
"s  c #0E433B",
"d  c #0C4637",
"f  c #114635",
"g  c #124C3C",
"h  c #16533B",
"j  c #1B5C3D",
"k  c #175538",
"l  c #33543B",
"z  c #1F653B",
"x  c #1D6436",
"c  c #007232",
"v  c #22663E",
"b  c #226B3B",
"n  c #246D37",
"m  c #25733B",
"M  c #2B7D3C",
"N  c #277838",
"B  c #326837",
"V  c #000045",
"C  c #01004C",
"Z  c #090D4F",
"A  c #07174B",
"S  c #1A1343",
"D  c #1A1949",
"F  c #000053",
"G  c #0B0254",
"H  c #00025E",
"J  c #0D005A",
"K  c #13025B",
"L  c #160A58",
"P  c #0A1858",
"I  c #151C5C",
"U  c #191958",
"Y  c #211B5C",
"T  c #2C1D42",
"R  c #0A2E46",
"E  c #112C4E",
"W  c #1D2045",
"Q  c #093343",
"!  c #0E3C44",
"~  c #0F374C",
"^  c #133A4D",
"/  c #0F2850",
"(  c #132B54",
")  c #16245C",
"_  c #172A59",
"`  c #152458",
"'  c #143554",
"]  c #163A52",
"[  c #1A3856",
"{  c #0F3150",
"}  c #28275A",
"|  c #2E2E4F",
" . c #000865",
".. c #190164",
"X. c #1C0B6A",
"o. c #160763",
"O. c #1B1B64",
"+. c #1C146A",
"@. c #1E1D6B",
"#. c #171763",
"$. c #001963",
"%. c #20096D",
"&. c #21186A",
"*. c #231670",
"=. c #220C70",
"-. c #1E2466",
";. c #1E2B66",
":. c #1E2369",
">. c #1D2C6C",
",. c #1B3362",
"<. c #1D3569",
"1. c #003473",
"2. c #0C3073",
"3. c #21256B",
"4. c #222A6C",
"5. c #242867",
"6. c #27356A",
"7. c #262571",
"8. c #272C73",
"9. c #282D75",
"0. c #273273",
"q. c #293275",
"w. c #293B75",
"e. c #2A3679",
"r. c #2A3E7C",
"t. c #263A79",
"y. c #343B70",
"u. c #164A44",
"i. c #154349",
"p. c #164749",
"a. c #195244",
"s. c #1D5C43",
"d. c #1B4C53",
"f. c #0F4643",
"g. c #275748",
"h. c #25425B",
"j. c #1F6241",
"k. c #236B41",
"l. c #226643",
"z. c #277341",
"x. c #2C7C42",
"c. c #2B7543",
"v. c #3F7648",
"b. c #27437B",
"n. c #2A457E",
"m. c #2A487F",
"M. c #264177",
"N. c #3C437D",
"B. c #48494B",
"V. c #5C5C5C",
"C. c #545455",
"Z. c #59645A",
"A. c #567557",
"S. c #4B6450",
"D. c #565A65",
"F. c #5B5B77",
"G. c #626262",
"H. c #64666F",
"J. c #6D726F",
"K. c #6E7C6E",
"L. c #6F7177",
"P. c #737373",
"I. c #7C7C7C",
"U. c #707279",
"Y. c #6D6E72",
"T. c #008100",
"R. c #138A27",
"E. c #2D833D",
"W. c #2F8A3C",
"Q. c #318B3C",
"!. c #289C35",
"~. c #34913E",
"^. c #37993C",
"/. c #2E8243",
"(. c #308543",
"). c #328B43",
"_. c #35854B",
"`. c #369344",
"'. c #389745",
"]. c #3A9C45",
"[. c #3C964A",
"{. c #389847",
"}. c #3CA246",
"|. c #3EA448",
" X c #429F4B",
".X c #478252",
"XX c #43A44D",
"oX c #4CA954",
"OX c #7A847A",
"+X c #6E9370",
"@X c #2B4680",
"#X c #2D4A83",
"$X c #344D83",
"%X c #3B5286",
"&X c #3B5389",
"*X c #375088",
"=X c #2F5183",
"-X c #46598A",
";X c #7D7E81",
":X c #827C81",
">X c #848484",
",X c #8B8B8B",
"<X c #868786",
"1X c #939393",
"2X c #9C9C9C",
"3X c #989996",
"4X c #8E8D94",
"5X c #94A295",
"6X c #A3A4A3",
"7X c #ADADAD",
"8X c #ADA7AC",
"9X c #B3B3B3",
"0X c #BBBBBB",
"qX c #B0AEB0",
"wX c #C4C4C4",
"eX c #CBCACB",
"rX c #C9C8C5",
"tX c #D4D5D4",
"yX c #DCDCDC",
"uX c #D8D7D8",
"iX c #CFD0CF",
"pX c #E0DEDF",
"aX c #DFDFE0",
"sX c #E3E3E3",
"dX c #ECECEC",
"fX c #E8E7E8",
"gX c #F4F4F4",
"hX c #FEFEFE",
"jX c #F9F5F9",
/* pixels */
"                                                                                                                                ",
"                                                                                                                                ",
"                                                                                                                                ",
"                                                      . . . . . . . . . .                                                       ",
"                                              . . r - I.yXtXtXtXtXtXtXyXI.- | . .                                               ",
"                                          . $ >X6XdXdXgXhXhXhXhXhXhXhXhXgXdXdX6X>X. .                                           ",
"                                        . 1XyXhXhXhXhXhXhXhXhXhXhXhXhXhXhXhXhXhXhXyX3X.                                         ",
"                                    . P.yXhXhXhXhXhXhXhXhXhXhXhXhXhXhXhXhXhXhXhXhXhXgXeXP..                                     ",
"                                  r 6XdXhXhXhXhXhXhXhXhXhXhXhXhXhXhXhXhXhXhXhXhXhXhXgXeXwX<X.                                   ",
"                                $ tXhXhXhXhXhXhXhXhXyXgXhXhXhXhXhXhXhXhXhXwXdXhXhXdXwX8XI.;X5.1                                 ",
"                              . J.jXhXgXhXhXhXhXgX7X$ 3XhXhXhXwXU.4XL.7XtX- iXfXhXaXwX6XH.F &Xw.2                               ",
"                            e p +XjXdX9XgXhXhXjXgXeX>Xr 1XhXgXOXC #XF >XJ.+ 1X,X3X3XeX0X< -X@X#Xw.2                             ",
"                          . # B Z.wXwXyXsXhXhXdX7XOX<Xr V.dXhXrXD.2.-X$.1.N.H $.< ;XY.D.1.$Xn.m.#Xw.>                           ",
"                          P.0XyX,XI.G.iX0XuXfXiXl u * X 6XhXjX2X/ *X@X=X=Xb.&X&X&X .1.1.$Xn.@Xn.@X@XD                           ",
"                        . 9XhXhXgXyXP.:XG.OXA.a v.| y.+.W 6X,X. @X#X@X@X@X@Xb.n.@X%X*X$Xb.@X@Xm.@Xn.[ :                         ",
"                      # i G.eXgXhXhX6XZ..Xp `.z.d ) ` p.f.. C N.@X@X@X@X@X@X@X@X#Xm.b.m.@X#X#X@X#X>.m z.+                       ",
"                      , {.R.u >XeX7XS.T.|.oX[.n E O.x ^.Q..X} 6.m.@X@X@X@X@X@X@Xm.b.m.@Xt.,.<.b.=X#.x.`.,                       ",
"                    + z.{.XX'.p p p R.oXXX].XX(.] K j /.(.}.n #.@Xm.@X@X@X@X#X=X#X=X#X,.i.z z ' >.a.`.].z.+                     ",
"                    ; ).}.]. XXX}.oX[.N M /.^.k o.a.9 k.'.].z O.@X#X@X@X@X#XM.;.>.<.#.h ).].].W.3 j }.|.(.+                     ",
"                    3 j {.].].].].`.g F s.s.g ' &.h /.].}.~.E 8.b.@X@X@X@XM.Q m /.x.M `.|.].].|.).0 E.^.g S                     ",
"                  O b j./.].].].`.j J ..v j ..9.&.h ].].|.E.` 9.q.n.m.n.#X>.N }.}.}.}.].{.{.{.].`.0 ' d.) } o                   ",
"                  X z.j.g }.].x.g p.X.;.( _ q.q.q.A W.}.E.0 :.q.8.t.n.n.=X>./.}.].].].{.}.].}.}.z ;.@X@Xr.U .                   ",
"                  5 `.`.s z.|.).3 ) >.3.3.X.%.%.8.-.g g.! O.q.8.8.8.q.m.#X>.M }.].].].}.).a.n N f.r.#X@Xe.8.S                   ",
"                  f {.}.`.0 z.W.j ..4.O.C g l.j.R :.7.*.7.q.8.8.8.8.8.q.#X>.M }.].].].W.a.+.h.' t.@X@X>...:.D                   ",
"                  f {.].}.`.9 J ) >.o.0 m ].}.}.E.Q 4.q.8.8.8.8.8.8.8.8.r.>.M |.].'.j d d.@X@X@X@X@X;.8 E.h 1                   ",
"                  f {.].].m R :.4.L 9 ).|.`.(.{.{.x O.9.8.8.8.8.8.8.8.8.9.O.n b ].b #.b.t.@Xm.n.n.q.G E.XX`.q                   ",
"                  7 ).|.~.V O.3.I 0 ).].].x.3 x n R 4.9.8.8.8.8.8.8.8.8.9.4.) G k a.q.n.r.t.r.r.0.L h '.].].f                   ",
"                  7 x.|.W.I 4.O.E W.|.).M E.z A a._ 9.8.8.9.8.8.8.8.8.8.8.9.q.0.O.:.8.7.8.8.4.*.J h ].].].'.8                   ",
"                  w i.m g I 3.X.] ~.XX).Q A i.,.=.8.8.8.8.8.8.8.8.8.8.8.8.8.8.8.q.q.8.8.q.8.' s.z `.].].].{.d                   ",
"                  L o.L I :.3.+.] Q.].N ( @.+.@.0.9.8.8.8.8.8.8.9.8.8.9.8.8.8.8.8.8.8.8.7.O.! Q.|.].].].].].s                   ",
"                  S 4.4.:.:.>.X.] ^.`.j ' :.4.-.3.8.8.8.8.8.8.8.8.8.8.8.8.8.8.8.8.8.8.8.[ g c.`.].].].].].`.5                   ",
"                  o Y :.:.:.:.@./ M ).s ) :.-.:.-.:.8.8.8.8.8.9.8.8.8.8.8.8.8.8.8.8.8.7.u.k ).}.].].].].}.l.O                   ",
"                  o Y :.:.:.:.:.#.! u.L &.:.:.:.:.:.:.8.8.8.8.8.8.8.8.8.8.8.8.8.8.8.8.0.U j `.`.].].].].}.k.X                   ",
"                    D :.:.:.:.:.:.O.o.>.:.:.:.:.:.:.:.:.8.8.8.8.8.8.8.8.8.8.8.8.8.8.8.e.=.d.E.x.].].].].`.k                     ",
"                    > &.:.:.:.:.:.>.4.:.:.:.:.:.:.:.:.:.:.8.8.8.8.9.9.q.9.8.8.8.9.8.` ` *.,.8 b ].].].}./.;                     ",
"                    > Y :.:.:.:.:.:.-.:.:.:.:.:.-.:.:.:.:.:.4.8.q.4.+.&.3.8.8.9.4.Z n N ' I k `.}.].].].z.+                     ",
"                      S 3.3.:.:.:.:.:.:.:.:.:.3.3.q.4.-.:.:.+.4.&.h.g.j s 5.9.8.Z v ].E.R / Q.}.].].].'.7                       ",
"                      @ U :.:.:.:.:.:.:.:.:.:.4.#.V H 4.3.[ ! -.8.1 y m x.~ 4.#.z [.}.k.K 6.u.x.].].}.b +                       ",
"                        S :.@.@.@.:.:.:.-.@.-.. t 6XV.C C 6 n G V :X1XB * ; O C c. X].c F C V k.].}.`.8                         ",
"                          D ' ( / _ @.3.:.P ; 6XtXuX1X# 1XI.& c = eXeX% qXuXrXr a ^.c.S.B.3X>Xu XX`.f                           ",
"                          + m ].W.i.X.y.C >XsXhXhXsXpX0X1XwXV.5XK.1XeXtXhXhXdX>XZ.i :XdXdXyX8XA.!._.+                           ",
"                            5 `.}.s &.q.; 9XhXhXhXpXA.OXyX7XwXhXeXsXhXhXhXhXjXgXsXtX0XdXjX6X. v.).5                             ",
"                              , ).(.V | . V.gXhXdXP.y 5XhXdXhXgXyXdXdXtXgXhXhXhXhXhXjXjXsXD  .g.6                               ",
"                                w (.* 9XyXI.tXsX2XD.>XtXhXhXhXhXhX0XwXgXhXhXhXhXhXhXhXhXfXF.H T                                 ",
"                                  & l pXhXwX,X3XwX6X2XsXhXhXhXhXhXdXgXhXhXhXhXhXhXhXhXhXsX| 1                                   ",
"                                    @ P.1X9X8X2XP.P.6XsXhXhXhXhXhXhXhXhXhXhXhXhXhXhXhXsX,X.                                     ",
"                                        . . P.0X0XiXhXhXjXhXjXhXhXjXhXhXhXhXhXhXhXpX6X$                                         ",
"                                          . . OXwXgXgXjXhXhXhXhXhXhXhXhXjXgXdX9X2XB..                                           ",
"                                              . . G.C.,XyXtXtXyXuXuXuXyX,XC.Z.. .                                               ",
"                                                        . . . . . . . .                                                         ",
"                                                                                                                                ",
"                                                                                                                                ",
"                                                                                                                                "
};
